<svg width="25" height="28" viewBox="0 0 25 28" fill="none" xmlns="http://www.w3.org/2000/svg">
<path fill-rule="evenodd" clip-rule="evenodd" d="M21.1522 7.15564C22.7292 7.15564 24.0076 5.90204 24.0076 4.35565C24.0076 2.80926 22.7292 1.55566 21.1522 1.55566C19.5753 1.55566 18.2969 2.80926 18.2969 4.35565C18.2969 5.90204 19.5753 7.15564 21.1522 7.15564Z" stroke="white" stroke-width="1.5" stroke-linecap="round" stroke-linejoin="round"/>
<path fill-rule="evenodd" clip-rule="evenodd" d="M21.1522 16.8002C22.7292 16.8002 24.0076 15.5466 24.0076 14.0002C24.0076 12.4538 22.7292 11.2002 21.1522 11.2002C19.5753 11.2002 18.2969 12.4538 18.2969 14.0002C18.2969 15.5466 19.5753 16.8002 21.1522 16.8002Z" stroke="white" stroke-width="1.5" stroke-linecap="round" stroke-linejoin="round"/>
<path fill-rule="evenodd" clip-rule="evenodd" d="M4.01941 16.8002C5.59637 16.8002 6.87476 15.5466 6.87476 14.0002C6.87476 12.4538 5.59637 11.2002 4.01941 11.2002C2.44244 11.2002 1.16406 12.4538 1.16406 14.0002C1.16406 15.5466 2.44244 16.8002 4.01941 16.8002Z" stroke="white" stroke-width="1.5" stroke-linecap="round" stroke-linejoin="round"/>
<path fill-rule="evenodd" clip-rule="evenodd" d="M21.1522 26.4447C22.7292 26.4447 24.0076 25.1911 24.0076 23.6447C24.0076 22.0983 22.7292 20.8447 21.1522 20.8447C19.5753 20.8447 18.2969 22.0983 18.2969 23.6447C18.2969 25.1911 19.5753 26.4447 21.1522 26.4447Z" stroke="white" stroke-width="1.5" stroke-linecap="round" stroke-linejoin="round"/>
<path d="M18.2969 4.35547H15.1241C13.7218 4.35547 12.5859 5.46924 12.5859 6.84435V21.1554C12.5859 22.5305 13.7218 23.6443 15.1241 23.6443H18.2969" stroke="white" stroke-width="1.5" stroke-linecap="round" stroke-linejoin="round"/>
<path d="M18.2966 14.0006H6.875" stroke="white" stroke-width="1.5" stroke-linecap="round" stroke-linejoin="round"/>
</svg>
