<svg width="29" height="28" viewBox="0 0 29 28" fill="none" xmlns="http://www.w3.org/2000/svg">
<path d="M13.3141 10.4098V5.55335C14.4728 5.26141 15.3317 4.22835 15.3317 3.00223C15.3317 1.55004 14.1269 0.368652 12.646 0.368652C11.1651 0.368652 9.96036 1.55004 9.96036 3.00223C9.96036 4.22835 10.8192 5.26132 11.9778 5.55326V10.4097C10.5725 10.6171 9.37936 11.468 8.72129 12.6457L5.78243 10.4054C5.85432 10.207 5.89378 9.9936 5.89378 9.77137C5.89378 8.72399 5.02477 7.87184 3.95666 7.87184C2.88854 7.87184 2.01953 8.72399 2.01953 9.77137C2.01953 10.8188 2.88854 11.6709 3.95666 11.6709C4.3105 11.6709 4.64215 11.5769 4.92793 11.4138L8.24986 13.9462C8.20087 14.2057 8.17397 14.4726 8.17397 14.7459C8.17397 15.719 8.4993 16.6188 9.04832 17.3471L5.29229 21.0302C5.03136 21.2861 5.03136 21.7009 5.29229 21.9567C5.42279 22.0846 5.59384 22.1486 5.76479 22.1486C5.93574 22.1486 6.10678 22.0847 6.23729 21.9567L9.99332 18.2736C10.566 18.6888 11.2428 18.9734 11.9778 19.0819V23.9492C11.2379 24.2167 10.7088 24.915 10.7088 25.7322C10.7088 26.7796 11.5779 27.6317 12.646 27.6317C13.7141 27.6317 14.5831 26.7796 14.5831 25.7322C14.5831 24.9149 14.054 24.2166 13.3141 23.9492V19.082C15.4642 18.7648 17.118 16.9413 17.118 14.746C17.118 12.5505 15.4641 10.727 13.3141 10.4098ZM3.95666 10.3607C3.62526 10.3607 3.35579 10.0963 3.35579 9.77146C3.35579 9.44659 3.62526 9.18225 3.95666 9.18225C4.28805 9.18225 4.55752 9.44659 4.55752 9.77146C4.55752 10.0963 4.28796 10.3607 3.95666 10.3607ZM11.2965 3.00223C11.2965 2.27256 11.9018 1.67898 12.6459 1.67898C13.3899 1.67898 13.9953 2.27256 13.9953 3.00223C13.9953 3.73191 13.3899 4.32549 12.6459 4.32549C11.9018 4.32549 11.2965 3.73191 11.2965 3.00223ZM12.646 26.3214C12.3146 26.3214 12.0451 26.0571 12.0451 25.7322C12.0451 25.4478 12.2515 25.2099 12.5252 25.1549C12.5644 25.162 12.6046 25.1662 12.646 25.1662C12.6873 25.1662 12.7276 25.162 12.7668 25.1549C13.0404 25.2099 13.2468 25.4478 13.2468 25.7322C13.2468 26.0571 12.9773 26.3214 12.646 26.3214ZM12.646 17.8207C10.9169 17.8207 9.51031 16.4413 9.51031 14.7458C9.51031 14.4466 9.55494 14.1576 9.63654 13.8839C9.64091 13.8703 9.645 13.8569 9.64839 13.8432C10.0426 12.5868 11.2371 11.6709 12.646 11.6709C14.375 11.6709 15.7817 13.0503 15.7817 14.7458C15.7817 16.4414 14.375 17.8207 12.646 17.8207Z" fill="white"/>
<path d="M25.8696 8.38184C24.3887 8.38184 23.1839 9.56322 23.1839 11.0154C23.1839 11.0831 23.1874 11.1499 23.1926 11.2163L20.4645 12.0434C20.1152 12.1601 19.9286 12.5325 20.0477 12.8749C20.1424 13.1474 20.4019 13.3189 20.68 13.3189C20.7515 13.3189 20.8242 13.3075 20.8956 13.2837L23.6236 12.4567C24.1039 13.174 24.9311 13.6491 25.8697 13.6491C27.3506 13.6491 28.5553 12.4677 28.5553 11.0155C28.5552 9.56331 27.3505 8.38184 25.8696 8.38184ZM25.8696 12.3388C25.1255 12.3388 24.5202 11.7452 24.5202 11.0155C24.5202 10.2858 25.1256 9.69225 25.8696 9.69225C26.6137 9.69225 27.219 10.2858 27.219 11.0155C27.219 11.7451 26.6137 12.3388 25.8696 12.3388Z" fill="white"/>
<path d="M2.68569 21.8774C1.20477 21.8774 0 23.0589 0 24.511C0 25.9632 1.20477 27.1446 2.68569 27.1446C4.16653 27.1446 5.3713 25.9632 5.3713 24.511C5.37139 23.0589 4.16653 21.8774 2.68569 21.8774ZM2.68569 25.8344C1.94158 25.8344 1.33626 25.2408 1.33626 24.5111C1.33626 23.7814 1.94167 23.1879 2.68569 23.1879C3.42972 23.1879 4.03504 23.7814 4.03504 24.5111C4.03513 25.2407 3.42981 25.8344 2.68569 25.8344Z" fill="white"/>
<ellipse cx="18.5824" cy="13.2601" rx="0.754257" ry="0.739622" fill="white"/>
</svg>
