<svg width="29" height="28" viewBox="0 0 29 28" fill="none" xmlns="http://www.w3.org/2000/svg">
<path d="M10.8281 13.8828V17.2213C10.828 17.9553 11.2509 18.6263 11.9205 18.9544L12.6849 19.3292C13.7976 19.8745 15.1071 19.8745 16.2198 19.3292L16.9842 18.9544C17.6537 18.6263 18.0767 17.9553 18.0765 17.2213V13.8828" stroke="white" stroke-width="1.5" stroke-linecap="round" stroke-linejoin="round"/>
<path fill-rule="evenodd" clip-rule="evenodd" d="M14.4523 26.9185C21.7308 26.9185 27.6312 21.1326 27.6312 13.9954C27.6312 6.85813 21.7308 1.07227 14.4523 1.07227C7.17383 1.07227 1.27344 6.85813 1.27344 13.9954C1.27344 21.1326 7.17383 26.9185 14.4523 26.9185Z" stroke="white" stroke-width="1.5" stroke-linecap="round" stroke-linejoin="round"/>
<path fill-rule="evenodd" clip-rule="evenodd" d="M8.46901 12.7252L12.9894 14.9394C13.9142 15.3918 15.002 15.3918 15.9269 14.9394L20.4429 12.7252C20.814 12.5438 21.0486 12.172 21.0486 11.7653C21.0486 11.3586 20.814 10.9869 20.4429 10.8054L15.9181 8.59127C14.9936 8.13755 13.9051 8.13755 12.9806 8.59127L8.46901 10.8054C8.09785 10.9869 7.86328 11.3586 7.86328 11.7653C7.86328 12.172 8.09785 12.5438 8.46901 12.7252V12.7252Z" stroke="white" stroke-width="1.5" stroke-linecap="round" stroke-linejoin="round"/>
<path d="M21.0447 11.7646V14.3492" stroke="white" stroke-width="1.5" stroke-linecap="round" stroke-linejoin="round"/>
</svg>
