<svg width="71" height="58" viewBox="0 0 71 58" fill="none" xmlns="http://www.w3.org/2000/svg">
<path d="M40.0576 31.2815L38.0148 33.7549C35.8274 36.376 31.963 36.7546 29.3313 34.6236L8.62606 17.5829C6.00496 15.3956 5.62627 11.5312 7.75728 8.89944L10.6433 5.35999C11.0878 4.86044 11.8065 4.76284 12.3624 5.21797C12.8619 5.66245 12.9595 6.38106 12.5044 6.93695L9.61845 10.4764C8.32006 12.0984 8.51406 14.4691 10.136 15.7675L30.8413 32.8082C32.4633 34.1065 34.834 33.9125 36.1324 32.2906L38.1751 29.8172C39.4735 28.1952 39.2795 25.8244 37.6575 24.526L23.9185 13.2362C23.419 12.7918 23.3213 12.0731 23.7764 11.5172C24.2209 11.0176 24.9396 10.9199 25.4955 11.3751L39.2345 22.665C41.8769 24.7396 42.2449 28.6604 40.0576 31.2815Z" fill="rgb(12, 9, 46)"/>
<path d="M62.1163 47.6442L58.4752 52.0913C55.0777 56.176 48.7512 56.6148 44.3604 52.9844L13.1952 27.374C12.6956 26.9295 12.598 26.2108 13.0531 25.6549C13.5082 25.099 14.2162 25.0578 14.7721 25.5129L45.9374 51.1233C49.3185 53.921 54.095 53.6563 56.6598 50.5813L60.3008 46.1342C62.8094 43.0486 62.1289 38.3102 58.7479 35.5125L23.2939 6.34936C19.9128 3.55162 15.1363 3.81635 12.5715 6.8913C12.127 7.39086 11.4083 7.48853 10.8524 7.0334C10.2965 6.57827 10.2552 5.87023 10.7103 5.31433C14.1078 1.22963 20.4343 0.790927 24.8252 4.42129L60.2791 33.5844C64.6699 37.2148 65.468 43.4925 62.1163 47.6442Z" fill="rgb(12, 9, 46)"/>
</svg>
