<svg width="190" height="133" viewBox="0 0 190 133" fill="none" xmlns="http://www.w3.org/2000/svg">
<path d="M176.191 62.2974C177.173 63.1643 178.104 63.9155 179.034 64.7823C185.031 70.388 188.65 77.4961 189.632 86.1646C190.408 92.8682 189.994 99.514 188.03 105.987C185.393 114.655 180.223 120.954 173.089 125.346C168.126 128.409 162.749 130.2 157.217 131.414C151.789 132.57 146.309 132.974 140.828 132.974C127.542 132.974 114.203 133.032 100.917 132.974C93.8857 132.917 86.8546 132.859 79.8752 132.859C78.8412 132.859 78.8412 132.859 78.8412 131.761C78.8412 126.04 78.8412 120.318 78.8412 114.597C78.8412 113.384 78.8413 113.384 79.927 113.384C84.735 113.384 89.4913 113.384 94.2993 113.384C94.6095 113.384 94.868 113.384 95.1782 113.384C96.1088 113.326 96.1088 113.326 96.1088 112.286C96.1088 110.147 96.1088 108.009 96.1088 105.929C96.1088 104.831 96.1088 104.831 95.0231 104.831C90.3185 104.831 85.6138 104.831 80.9092 104.831C80.2371 104.831 79.4616 105.177 78.9964 104.657C78.4794 104.137 78.7895 103.155 78.7895 102.403C78.7895 97.2024 78.7895 91.9436 78.7895 86.7425C78.7895 86.3957 78.7895 86.1068 78.7895 85.7601C78.7895 85.4133 78.9447 85.2399 79.2549 85.2399C79.565 85.2399 79.8235 85.2399 80.1337 85.2399C84.9934 85.2399 89.8015 85.2399 94.6612 85.2399C94.9714 85.2399 95.2299 85.2399 95.5401 85.2399C95.9537 85.2399 96.1604 85.1244 96.1604 84.6043C96.1604 81.8882 96.1604 79.172 96.1604 76.4559C96.1604 75.9358 95.9537 75.8202 95.5401 75.8202C95.2299 75.8202 94.9714 75.8202 94.6612 75.8202C89.8532 75.8202 85.0969 75.8202 80.2888 75.8202C79.9786 75.8202 79.6167 75.8202 79.3065 75.8202C78.9963 75.8202 78.8412 75.6469 78.8412 75.3001C78.8412 75.0112 78.8412 74.7222 78.8412 74.4911C78.8412 68.8855 78.8412 63.3376 78.8412 57.732C78.8412 57.5009 78.8412 57.2697 78.8412 57.0385C78.8412 56.5762 78.9964 56.3451 79.41 56.3451C79.7202 56.3451 79.9786 56.3451 80.2888 56.3451C85.0452 56.3451 89.8015 56.3451 94.5578 56.3451C94.868 56.3451 95.1265 56.3451 95.4367 56.3451C95.9537 56.3451 96.2122 56.1717 96.2122 55.536C96.2122 52.9932 96.2122 50.4505 96.2122 47.9078C96.2122 47.3876 96.0054 47.1565 95.5401 47.1565C95.2299 47.1565 94.9714 47.1565 94.6612 47.1565C90.0083 47.1565 85.3036 47.1565 80.6507 47.1565C80.3922 47.1565 80.1338 47.1565 79.927 47.1565C78.893 47.1565 78.893 47.1565 78.893 46.0007C78.893 43.5735 78.893 41.2041 78.893 38.7769C78.893 35.5985 78.893 32.4201 78.893 29.2416C78.893 27.3923 78.6861 27.5657 80.3405 27.5657C85.1485 27.5657 89.9049 27.5657 94.7129 27.5657C95.0231 27.5657 95.2816 27.5657 95.5918 27.5657C96.0571 27.6235 96.2639 27.3924 96.2639 26.8145C96.2639 24.6185 96.2639 22.3647 96.2639 20.1687C96.2639 19.7063 96.1088 19.4752 95.6952 19.5329C95.385 19.5329 95.1265 19.5329 94.8163 19.5329C90.0083 19.5329 85.252 19.5329 80.444 19.5329C80.1338 19.5329 79.8752 19.5329 79.565 19.5329C79.048 19.5907 78.893 19.3018 78.9447 18.7817C78.9447 18.5505 78.9447 18.3194 78.9447 18.0882C78.9447 12.5404 78.9447 6.99257 78.9447 1.44474C78.9447 1.21359 78.9447 0.982419 78.9447 0.75126C78.893 0.231152 79.1514 0 79.6167 0C79.9269 0 80.1854 0 80.4956 0C100.193 0 119.942 0 139.639 0C147.343 0 154.891 0.982441 162.232 3.69856C166.575 5.31668 170.659 7.51267 174.226 10.6911C179.603 15.4299 183.015 21.4978 184.359 29.0104C185.652 36.292 185.29 43.458 183.067 50.4505C181.826 54.438 179.81 58.021 177.225 61.1416C176.966 61.4306 176.708 61.7773 176.449 62.0663C176.294 62.124 176.242 62.1818 176.191 62.2974Z" fill="#74D414"/>
<path d="M61.3669 56.634C63.9518 56.634 66.5885 56.634 69.1734 56.634C70.0523 56.634 70.0523 56.634 70.0523 57.6164C70.0523 63.4532 70.0523 69.2322 70.0523 75.069C70.0523 76.167 70.0523 76.167 69.1217 76.167C63.9001 76.167 58.7302 76.167 53.5086 76.167C52.578 76.167 52.578 76.1092 52.578 75.069C52.578 69.2322 52.578 63.4532 52.578 57.6164C52.578 56.634 52.578 56.634 53.4569 56.634C56.0418 56.634 58.7302 56.634 61.3669 56.634Z" fill="#74D414"/>
<path d="M52.5263 94.7752C52.5263 91.8857 52.5263 89.054 52.5263 86.1645C52.5263 85.1821 52.5263 85.1821 53.4052 85.1821C58.6268 85.1821 63.9001 85.1821 69.1217 85.1821C70.0006 85.1821 70.0006 85.1821 70.0006 86.2223C70.0006 92.0591 70.0006 97.8381 70.0006 103.675C70.0006 104.715 70.0006 104.773 69.0183 104.773C63.7967 104.773 58.6268 104.773 53.4052 104.773C52.4746 104.773 52.4746 104.715 52.4746 103.675C52.5263 100.67 52.5263 97.7225 52.5263 94.7752Z" fill="#74D414"/>
<path d="M43.8407 95.1219C43.8407 98.0114 43.8407 100.843 43.8407 103.733C43.8407 104.715 43.8407 104.715 42.9618 104.715C37.7402 104.715 32.5703 104.715 27.3487 104.715C26.4698 104.715 26.4181 104.715 26.4181 103.733C26.4181 97.8959 26.4181 92.0013 26.4181 86.1645C26.4181 85.1821 26.4181 85.1821 27.297 85.1821C32.5186 85.1821 37.6885 85.1821 42.9101 85.1821C43.789 85.1821 43.8407 85.1821 43.8407 86.2801C43.8407 89.2274 43.8407 92.1747 43.8407 95.1219Z" fill="#74D414"/>
<path d="M61.1084 132.859C58.5235 132.859 55.9902 132.859 53.4053 132.859C52.5264 132.859 52.5264 132.859 52.5264 131.876C52.5264 126.04 52.5264 120.261 52.5264 114.424C52.5264 113.441 52.5264 113.384 53.4053 113.384C58.6786 113.384 63.9002 113.384 69.1735 113.384C70.0524 113.384 70.0524 113.441 70.0524 114.424C70.0524 120.261 70.0524 126.04 70.0524 131.876C70.0524 132.859 70.0524 132.917 69.0701 132.917C66.3818 132.859 63.7451 132.859 61.1084 132.859Z" fill="#74D414"/>
<path d="M31.1229 37.1011C31.1229 34.2116 31.1229 31.3799 31.1229 28.4904C31.1229 27.4502 31.1229 27.4502 32.1052 27.4502C37.2751 27.4502 42.445 27.4502 47.6149 27.4502C48.5455 27.4502 48.5972 27.4502 48.5972 28.4904C48.5972 34.3272 48.5972 40.1062 48.5972 45.9429C48.5972 46.9254 48.5972 46.9253 47.7183 46.9253C42.4967 46.9253 37.3268 46.9253 32.1052 46.9253C31.2263 46.9253 31.1746 46.9254 31.1746 45.8274C31.1229 42.8801 31.1229 39.9906 31.1229 37.1011Z" fill="#74D414"/>
<path d="M8.84054 113.326C11.4255 113.326 14.0622 113.326 16.6471 113.326C17.526 113.326 17.526 113.326 17.526 114.308C17.526 120.203 17.526 126.04 17.526 131.934C17.526 132.685 17.2675 132.859 16.6471 132.859C11.3738 132.859 6.1522 132.859 0.878892 132.859C0.258502 132.859 0 132.685 0 131.934C0 126.04 0 120.203 0 114.308C0 113.326 6.28628e-06 113.326 0.878892 113.326C3.61895 113.326 6.25558 113.326 8.84054 113.326Z" fill="#74D414"/>
<path d="M26.4181 122.977C26.4181 120.087 26.4181 117.256 26.4181 114.366C26.4181 113.326 26.4181 113.326 27.4004 113.326C32.5703 113.326 37.7402 113.326 42.9101 113.326C43.8407 113.326 43.8924 113.326 43.8924 114.366C43.8924 120.203 43.8924 125.982 43.8924 131.819C43.8924 132.743 43.8924 132.801 43.0135 132.801C37.7919 132.801 32.622 132.801 27.4004 132.801C26.5215 132.801 26.5215 132.801 26.5215 131.703C26.4181 128.813 26.4181 125.924 26.4181 122.977Z" fill="#74D414"/>
<path d="M132.35 89.9787C132.35 86.8003 132.35 83.6219 132.35 80.4434C132.35 79.2876 132.35 79.2299 133.332 79.2299C136.227 79.2299 139.122 79.2299 142.018 79.2299C143.775 79.2299 145.481 79.5766 147.136 80.2123C151.168 81.8304 153.391 85.529 153.288 90.3255C153.133 95.7578 150.393 99.2829 145.533 100.381C144.189 100.67 142.845 100.843 141.501 100.843C138.864 100.901 136.227 100.843 133.591 100.843C132.453 100.843 132.453 100.843 132.453 99.5141C132.35 96.3356 132.35 93.1572 132.35 89.9787Z" fill="#05030A"/>
<path d="M132.35 41.1463C132.35 38.488 132.35 35.8875 132.35 33.2292C132.35 32.1889 132.35 32.1311 133.28 32.1311C135.917 32.1311 138.554 32.0155 141.19 32.1889C142.586 32.3045 143.982 32.5935 145.274 33.1714C148.221 34.4428 149.772 36.8121 149.927 40.2795C149.979 41.0885 149.979 41.8399 149.927 42.6489C149.721 45.654 148.428 47.85 145.895 49.0636C144.292 49.8148 142.638 50.1616 140.932 50.2194C138.347 50.2772 135.814 50.2771 133.229 50.2771C132.35 50.2771 132.298 50.2771 132.298 49.1791C132.35 46.463 132.35 43.8047 132.35 41.1463Z" fill="#05030A"/>
</svg>
