<svg width="210" height="137" viewBox="0 0 210 137" fill="none" xmlns="http://www.w3.org/2000/svg">
<path d="M194.737 64.171C195.823 65.064 196.851 65.8378 197.88 66.7307C204.508 72.5049 208.508 79.8268 209.594 88.756C210.451 95.6612 209.994 102.507 207.822 109.174C204.908 118.103 199.194 124.592 191.309 129.116C185.823 132.271 179.88 134.116 173.766 135.366C167.767 136.557 161.71 136.974 155.653 136.974C140.967 136.974 126.225 137.033 111.54 136.974C103.768 136.914 95.9972 136.855 88.2831 136.855C87.1403 136.855 87.1403 136.855 87.1403 135.723C87.1403 129.83 87.1403 123.937 87.1403 118.044C87.1403 116.794 87.1404 116.794 88.3403 116.794C93.6545 116.794 98.9114 116.794 104.226 116.794C104.568 116.794 104.854 116.794 105.197 116.794C106.226 116.734 106.225 116.734 106.225 115.663C106.225 113.46 106.225 111.258 106.225 109.115C106.225 107.984 106.225 107.984 105.026 107.984C99.8257 107.984 94.6258 107.984 89.426 107.984C88.6831 107.984 87.826 108.341 87.3118 107.805C86.7404 107.269 87.0832 106.257 87.0832 105.483C87.0832 100.126 87.0832 94.7088 87.0832 89.3513C87.0832 88.9941 87.0832 88.6965 87.0832 88.3393C87.0832 87.9822 87.2546 87.8036 87.5975 87.8036C87.9403 87.8036 88.226 87.8036 88.5689 87.8036C93.9401 87.8036 99.2543 87.8036 104.626 87.8036C104.968 87.8036 105.254 87.8036 105.597 87.8036C106.054 87.8036 106.283 87.6845 106.283 87.1488C106.283 84.351 106.283 81.5532 106.283 78.7554C106.283 78.2196 106.054 78.1005 105.597 78.1005C105.254 78.1005 104.968 78.1005 104.626 78.1005C99.3114 78.1005 94.0544 78.1005 88.7403 78.1005C88.3975 78.1005 87.9975 78.1005 87.6546 78.1005C87.3118 78.1005 87.1403 77.922 87.1403 77.5648C87.1403 77.2672 87.1403 76.9695 87.1403 76.7314C87.1403 70.9572 87.1403 65.2425 87.1403 59.4683C87.1403 59.2302 87.1403 58.9921 87.1403 58.7539C87.1403 58.2777 87.3118 58.0396 87.7689 58.0396C88.1118 58.0396 88.3975 58.0396 88.7403 58.0396C93.9973 58.0396 99.2543 58.0396 104.511 58.0396C104.854 58.0396 105.14 58.0396 105.483 58.0396C106.054 58.0396 106.34 57.861 106.34 57.2062C106.34 54.587 106.34 51.9678 106.34 49.3486C106.34 48.8128 106.111 48.5747 105.597 48.5747C105.254 48.5747 104.968 48.5747 104.626 48.5747C99.4829 48.5747 94.283 48.5747 89.1403 48.5747C88.8546 48.5747 88.5689 48.5747 88.3403 48.5747C87.1975 48.5747 87.1975 48.5747 87.1975 47.3841C87.1975 44.884 87.1975 42.4433 87.1975 39.9432C87.1975 36.6691 87.1975 33.3951 87.1975 30.1211C87.1975 28.2162 86.9689 28.3947 88.7974 28.3947C94.1116 28.3947 99.3686 28.3947 104.683 28.3947C105.026 28.3947 105.311 28.3947 105.654 28.3947C106.168 28.4543 106.397 28.2162 106.397 27.6209C106.397 25.3589 106.397 23.0373 106.397 20.7752C106.397 20.299 106.226 20.0609 105.768 20.1204C105.426 20.1204 105.14 20.1204 104.797 20.1204C99.4828 20.1204 94.2259 20.1204 88.9118 20.1204C88.5689 20.1204 88.2832 20.1204 87.9403 20.1204C87.3689 20.1799 87.1975 19.8823 87.2546 19.3465C87.2546 19.1084 87.2546 18.8703 87.2546 18.6322C87.2546 12.9175 87.2546 7.20287 87.2546 1.4882C87.2546 1.25008 87.2546 1.01197 87.2546 0.773855C87.1975 0.238104 87.4832 0 87.9974 0C88.3403 0 88.626 0 88.9689 0C110.74 0 132.568 0 154.338 0C162.852 0 171.195 1.01199 179.309 3.8098C184.109 5.47658 188.623 7.73862 192.566 11.0127C198.508 15.8939 202.28 22.1443 203.765 29.8829C205.194 37.3835 204.794 44.765 202.337 51.9678C200.966 56.0753 198.737 59.766 195.88 62.9805C195.594 63.2781 195.309 63.6353 195.023 63.9329C194.851 63.9924 194.794 64.052 194.737 64.171Z" fill="#74D414"/>
<path d="M67.8265 58.3373C70.6836 58.3373 73.5978 58.3373 76.4548 58.3373C77.4262 58.3373 77.4262 58.3373 77.4262 59.3492C77.4262 65.3615 77.4262 71.3144 77.4262 77.3267C77.4262 78.4577 77.4263 78.4577 76.3977 78.4577C70.6265 78.4577 64.9123 78.4577 59.1411 78.4577C58.1125 78.4577 58.1125 78.3982 58.1125 77.3267C58.1125 71.3144 58.1125 65.3615 58.1125 59.3492C58.1125 58.3373 58.1125 58.3373 59.0839 58.3373C61.941 58.3373 64.9123 58.3373 67.8265 58.3373Z" fill="#74D414"/>
<path d="M58.0554 97.6257C58.0554 94.6493 58.0554 91.7324 58.0554 88.756C58.0554 87.744 58.0554 87.744 59.0268 87.744C64.7981 87.744 70.6265 87.744 76.3977 87.744C77.3691 87.744 77.3691 87.744 77.3691 88.8155C77.3691 94.8278 77.3691 100.781 77.3691 106.793C77.3691 107.864 77.3691 107.924 76.2834 107.924C70.5122 107.924 64.7981 107.924 59.0268 107.924C57.9983 107.924 57.9983 107.864 57.9983 106.793C58.0554 103.698 58.0554 100.662 58.0554 97.6257Z" fill="#74D414"/>
<path d="M48.4555 97.9828C48.4555 100.959 48.4555 103.876 48.4555 106.852C48.4555 107.864 48.4555 107.864 47.4841 107.864C41.7129 107.864 35.9988 107.864 30.2275 107.864C29.2561 107.864 29.199 107.864 29.199 106.852C29.199 100.84 29.199 94.7683 29.199 88.756C29.199 87.744 29.199 87.744 30.1704 87.744C35.9416 87.744 41.6558 87.744 47.427 87.744C48.3984 87.744 48.4555 87.7441 48.4555 88.8751C48.4555 91.911 48.4555 94.9469 48.4555 97.9828Z" fill="#74D414"/>
<path d="M67.5409 136.855C64.6838 136.855 61.8839 136.855 59.0268 136.855C58.0554 136.855 58.0554 136.854 58.0554 135.842C58.0554 129.83 58.0554 123.877 58.0554 117.865C58.0554 116.853 58.0554 116.794 59.0268 116.794C64.8552 116.794 70.6265 116.794 76.4549 116.794C77.4263 116.794 77.4262 116.853 77.4262 117.865C77.4262 123.877 77.4262 129.83 77.4262 135.842C77.4262 136.854 77.4263 136.914 76.3406 136.914C73.3693 136.854 70.4551 136.855 67.5409 136.855Z" fill="#74D414"/>
<path d="M34.3989 38.2169C34.3989 35.2405 34.3989 32.3237 34.3989 29.3473C34.3989 28.2758 34.3989 28.2758 35.4846 28.2758C41.1987 28.2758 46.9128 28.2758 52.6269 28.2758C53.6555 28.2758 53.7126 28.2758 53.7126 29.3473C53.7126 35.3596 53.7126 41.3124 53.7126 47.3247C53.7126 48.3366 53.7126 48.3366 52.7412 48.3366C46.97 48.3366 41.2558 48.3366 35.4846 48.3366C34.5132 48.3366 34.4561 48.3367 34.4561 47.2056C34.3989 44.1697 34.3989 41.1933 34.3989 38.2169Z" fill="#74D414"/>
<path d="M9.77112 116.734C12.6282 116.734 15.5424 116.734 18.3995 116.734C19.3709 116.734 19.3708 116.734 19.3708 117.746C19.3708 123.818 19.3708 129.83 19.3708 135.902C19.3708 136.676 19.0852 136.855 18.3995 136.855C12.5711 136.855 6.7998 136.855 0.971407 136.855C0.285713 136.855 0 136.676 0 135.902C0 129.83 0 123.818 0 117.746C0 116.734 6.94799e-06 116.734 0.971407 116.734C3.99989 116.734 6.91407 116.734 9.77112 116.734Z" fill="#74D414"/>
<path d="M29.199 126.675C29.199 123.699 29.199 120.782 29.199 117.806C29.199 116.734 29.199 116.734 30.2847 116.734C35.9988 116.734 41.7129 116.734 47.427 116.734C48.4556 116.734 48.5127 116.734 48.5127 117.806C48.5127 123.818 48.5127 129.771 48.5127 135.783C48.5127 136.735 48.5127 136.795 47.5413 136.795C41.77 136.795 36.0559 136.795 30.2847 136.795C29.3133 136.795 29.3133 136.795 29.3133 135.664C29.199 132.688 29.199 129.711 29.199 126.675Z" fill="#74D414"/>
<path d="M146.281 92.6848C146.281 89.4108 146.281 86.1368 146.281 82.8627C146.281 81.6722 146.281 81.6127 147.367 81.6127C150.567 81.6127 153.767 81.6127 156.967 81.6127C158.909 81.6127 160.795 81.9699 162.624 82.6247C167.081 84.2915 169.538 88.1012 169.423 93.0421C169.252 98.6377 166.224 102.269 160.852 103.4C159.367 103.697 157.881 103.876 156.395 103.876C153.481 103.936 150.567 103.876 147.653 103.876C146.396 103.876 146.396 103.876 146.396 102.507C146.281 99.2329 146.281 95.9589 146.281 92.6848Z" fill="rgb(250,250,250)"/>
<path d="M146.281 42.3838C146.281 39.6455 146.281 36.9668 146.281 34.2285C146.281 33.157 146.281 33.0975 147.31 33.0975C150.224 33.0975 153.138 32.9784 156.052 33.157C157.595 33.276 159.138 33.5737 160.567 34.169C163.824 35.4786 165.538 37.9192 165.709 41.4909C165.766 42.3243 165.766 43.0982 165.709 43.9316C165.481 47.027 164.052 49.2891 161.252 50.5392C159.481 51.313 157.652 51.6702 155.767 51.7297C152.91 51.7892 150.11 51.7892 147.253 51.7892C146.281 51.7892 146.224 51.7892 146.224 50.6582C146.281 47.8604 146.281 45.1221 146.281 42.3838Z" fill="rgb(250,250,250)"/>
</svg>
