<svg width="35" height="36" viewBox="0 0 35 36" fill="none" xmlns="http://www.w3.org/2000/svg">
<path opacity="0.2" d="M17.279 1.00049L32.0613 9.50036V26.5001L17.279 35L2.49658 26.5001V9.50036L17.279 1.00049Z" stroke="black" stroke-width="1.5" stroke-linecap="round" stroke-linejoin="round"/>
<path opacity="0.2" fill-rule="evenodd" clip-rule="evenodd" d="M15.7675 18.0299L2.80257 25.4784C2.4434 25.6847 2.31952 26.1432 2.52586 26.5023C2.7322 26.8615 3.19063 26.9854 3.54979 26.779L16.4693 19.3567V34.9995H17.9693V19.3055L31.5956 27.1997C31.954 27.4074 32.4129 27.2852 32.6205 26.9267C32.8282 26.5683 32.706 26.1095 32.3476 25.9018L18.7692 18.0354L32.4057 10.2011C32.7649 9.99476 32.8888 9.53633 32.6825 9.17717C32.4761 8.81801 32.0177 8.69412 31.6585 8.90046L17.9693 16.765V1H16.4693V16.703L3.55187 9.21941C3.19346 9.01176 2.73459 9.13399 2.52695 9.4924C2.31931 9.85081 2.44153 10.3097 2.79994 10.5173L15.7675 18.0299Z" fill="#000C13"/>
<path d="M17.2192 35V28.7175" stroke="black" stroke-width="1.5" stroke-linecap="round"/>
<path d="M22.3927 32.0597L17.5283 34.8567C17.374 34.9454 17.1842 34.9454 17.0299 34.8567L12.1655 32.0597" stroke="black" stroke-width="1.5" stroke-linecap="round"/>
<path d="M17.2192 18.0002V23.9132" stroke="black" stroke-width="1.5" stroke-linecap="round"/>
<path d="M22.3927 3.94079L17.5283 1.1438C17.374 1.05507 17.1842 1.05507 17.0299 1.1438L12.1655 3.94079" stroke="black" stroke-width="1.5" stroke-linecap="round"/>
<path d="M31.9712 26.5508L26.5304 23.4095" stroke="black" stroke-width="1.5" stroke-linecap="round"/>
<path d="M32.0115 20.6016L32.0016 26.2127C32.0013 26.3907 31.9064 26.5552 31.7524 26.6444L26.898 29.4586" stroke="black" stroke-width="1.5" stroke-linecap="round"/>
<path d="M2.52686 9.55078L7.96767 12.692" stroke="black" stroke-width="1.5" stroke-linecap="round"/>
<path d="M12.0449 15.0437L17.2188 18.0002" stroke="black" stroke-width="1.5" stroke-linecap="round"/>
<path d="M7.66043 6.54215L2.806 9.35629C2.652 9.44556 2.55708 9.60998 2.55676 9.78798L2.54686 15.3991" stroke="black" stroke-width="1.5" stroke-linecap="round"/>
<path d="M32.0312 9.55469L26.5904 12.6959" stroke="black" stroke-width="1.5" stroke-linecap="round"/>
<path d="M22.3926 15.0437L17.2187 18.0002" stroke="black" stroke-width="1.5" stroke-linecap="round"/>
<path d="M26.8977 6.54215L31.7521 9.35629C31.9061 9.44556 32.001 9.60998 32.0013 9.78798L32.0112 15.3991" stroke="black" stroke-width="1.5" stroke-linecap="round"/>
<path d="M2.58691 26.5508L8.02773 23.4095" stroke="black" stroke-width="1.5" stroke-linecap="round"/>
<path d="M2.54658 20.6016L2.55648 26.2127C2.55679 26.3907 2.65172 26.5552 2.80572 26.6444L7.66014 29.4586" stroke="black" stroke-width="1.5" stroke-linecap="round"/>
</svg>
