<svg width="35" height="33" viewBox="0 0 35 33" fill="none" xmlns="http://www.w3.org/2000/svg">
<path d="M35 2.87592C35 1.31913 33.738 0.0571289 32.1812 0.0571289H2.81879C1.262 0.0571289 0 1.31913 0 2.87592V30.1242C0 31.681 1.262 32.943 2.81879 32.943H32.1812C33.738 32.943 35 31.681 35 30.1242V2.87592ZM10.6879 3.58062H15.7383V7.57391H10.6879V3.58062ZM7.16443 29.4195H3.52349V25.4263H7.16443V29.4195ZM7.16443 7.57391H3.52349V3.58062H7.16443V7.57391ZM15.7383 29.4195H10.6879V25.4263H15.7383V29.4195ZM14.4463 19.7544V13.2457C14.4463 12.2767 15.1355 11.9183 15.9461 12.449L20.672 15.5346C21.4826 16.0654 21.4892 16.9339 20.6785 17.4648L15.9429 20.551C15.1322 21.0819 14.4463 20.7233 14.4463 19.7544ZM24.3121 29.4195H19.2617V25.4263H24.3121V29.4195ZM24.3121 7.57391H19.2617V3.58062H24.3121V7.57391ZM31.4765 29.4195H27.8356V25.4263H31.4765V29.4195ZM31.4765 7.57391H27.8356V3.58062H31.4765V7.57391Z" fill="#CACACA"/>
</svg>
