<svg width="11" height="47" viewBox="0 0 11 47" fill="none" xmlns="http://www.w3.org/2000/svg">
<path fill-rule="evenodd" clip-rule="evenodd" d="M1.66669 0.333313C1.1144 0.333313 0.666687 0.781028 0.666687 1.33331V31.3333C0.666687 31.8856 1.1144 32.3333 1.66669 32.3333C2.21897 32.3333 2.66669 31.8856 2.66669 31.3333V1.33331C2.66669 0.781028 2.21897 0.333313 1.66669 0.333313ZM9.66667 14.9998C9.11438 14.9998 8.66667 15.4475 8.66667 15.9998V45.9998C8.66667 46.5521 9.11438 46.9998 9.66667 46.9998C10.219 46.9998 10.6667 46.5521 10.6667 45.9998V15.9998C10.6667 15.4475 10.219 14.9998 9.66667 14.9998Z" fill="url(#paint0_linear_4277_10791)"/>
<defs>
<linearGradient id="paint0_linear_4277_10791" x1="5.66668" y1="0.333313" x2="5.66668" y2="46.9998" gradientUnits="userSpaceOnUse">
<stop stop-color="#FBAC31"/>
<stop offset="1" stop-color="#EA214F"/>
</linearGradient>
</defs>
</svg>
