<svg width="153" height="176" viewBox="0 0 153 176" fill="none" xmlns="http://www.w3.org/2000/svg">
<g filter="url(#filter0_d_4277_10795)">
<path d="M69.9751 74C64.7849 74 60.5625 78.2224 60.5625 83.4126V96.5874C60.5625 101.778 64.7849 106 69.9751 106C75.1653 106 79.3877 101.778 79.3877 96.5874V83.4126C79.3877 78.2224 75.1653 74 69.9751 74ZM77.4678 96.5874C77.4678 100.719 74.1064 104.08 69.9751 104.08C65.8438 104.08 62.4824 100.719 62.4824 96.5874V83.4126C62.4824 79.2812 65.8438 75.9199 69.9751 75.9199C74.1064 75.9199 77.4678 79.2812 77.4678 83.4126V96.5874Z" fill="url(#paint0_linear_4277_10795)"/>
<path d="M69.9753 80.3658C69.4451 80.3658 69.0154 80.7955 69.0154 81.3258V85.7443C69.0154 86.2743 69.4451 86.7042 69.9753 86.7042C70.5054 86.7042 70.9353 86.2743 70.9353 85.7443V81.3258C70.9353 80.7955 70.5056 80.3658 69.9753 80.3658Z" fill="url(#paint1_linear_4277_10795)"/>
</g>
<defs>
<filter id="filter0_d_4277_10795" x="-19.3333" y="0.666664" width="178.667" height="178.667" filterUnits="userSpaceOnUse" color-interpolation-filters="sRGB">
<feFlood flood-opacity="0" result="BackgroundImageFix"/>
<feColorMatrix in="SourceAlpha" type="matrix" values="0 0 0 0 0 0 0 0 0 0 0 0 0 0 0 0 0 0 127 0" result="hardAlpha"/>
<feOffset/>
<feGaussianBlur stdDeviation="36.6667"/>
<feColorMatrix type="matrix" values="0 0 0 0 0.94902 0 0 0 0 0.411765 0 0 0 0 0.247059 0 0 0 0.55 0"/>
<feBlend mode="normal" in2="BackgroundImageFix" result="effect1_dropShadow_4277_10795"/>
<feBlend mode="normal" in="SourceGraphic" in2="effect1_dropShadow_4277_10795" result="shape"/>
</filter>
<linearGradient id="paint0_linear_4277_10795" x1="69.9751" y1="74" x2="69.9751" y2="106" gradientUnits="userSpaceOnUse">
<stop stop-color="#FBAC31"/>
<stop offset="1" stop-color="#EA214F"/>
</linearGradient>
<linearGradient id="paint1_linear_4277_10795" x1="69.9753" y1="80.3658" x2="69.9753" y2="86.7042" gradientUnits="userSpaceOnUse">
<stop stop-color="#FBAC31"/>
<stop offset="1" stop-color="#EA214F"/>
</linearGradient>
</defs>
</svg>
