<svg width="546" height="189" viewBox="0 0 546 189" fill="none" xmlns="http://www.w3.org/2000/svg">
<g clip-path="url(#clip0_21_2)">
<path d="M239.609 88.29C243.492 91.4899 246.804 94.956 249.659 99.0887C255.027 107.088 257.768 116.154 258.225 126.152C258.682 136.018 257.768 145.484 254.228 154.549C250.573 164.148 244.634 171.347 236.982 176.68C228.988 182.28 220.194 185.212 210.943 186.946C203.519 188.279 196.096 188.679 188.558 188.679C171.084 188.679 153.725 188.812 136.251 188.679C127.228 188.545 118.206 188.412 109.183 188.412C107.813 188.412 107.242 188.012 107.242 186.279C107.356 178.546 107.242 170.681 107.242 162.948C107.242 160.682 107.242 160.682 109.183 160.682C115.465 160.682 121.746 160.682 128.028 160.682C130.312 160.682 130.312 160.682 130.312 158.149C130.312 155.749 130.312 153.483 130.312 151.083C130.312 148.683 130.312 148.55 128.256 148.55C122.203 148.55 116.15 148.55 110.211 148.55C106.785 148.55 107.127 148.817 107.127 144.95C107.127 137.751 107.127 130.685 107.127 123.486C107.127 120.686 107.127 120.686 109.412 120.686C115.579 120.686 121.86 120.686 128.028 120.686C130.312 120.686 130.312 120.686 130.312 118.153C130.312 115.353 130.198 112.554 130.312 109.888C130.426 108.154 129.741 107.755 128.37 107.755C122.203 107.755 116.15 107.755 109.983 107.755C106.785 107.755 107.013 108.021 107.013 104.422C107.013 97.0891 107.013 89.7566 107.013 82.4241C107.013 80.0243 107.013 80.0243 109.183 80.0243C115.465 80.0243 121.746 80.0243 128.028 80.0243C130.198 80.0243 130.197 80.0243 130.197 77.3579C130.197 74.9581 130.197 72.4251 130.197 70.0254C130.197 67.0926 130.198 66.9591 127.685 66.9591C121.86 66.9591 116.036 66.9591 110.211 66.9591C109.64 66.9591 109.069 66.9591 108.612 66.9591C107.47 67.0926 107.013 66.4257 107.013 65.0926C107.013 61.6265 107.013 58.0268 107.013 54.5603C107.013 50.4276 107.013 46.2949 107.013 42.0287C107.013 38.6958 106.899 39.0956 109.754 38.9624C115.807 38.9624 121.86 38.9624 127.799 38.9624C130.312 38.9624 130.197 39.2288 130.197 36.296C130.197 34.2961 130.197 32.2964 130.197 30.1633C130.197 27.8968 130.083 27.8968 128.142 27.8968C122.317 27.8968 116.493 27.8968 110.668 27.8968C105.871 27.8968 106.671 28.4301 106.557 23.2307C106.557 16.5648 106.557 9.76558 106.557 3.09965C106.557 0.166648 106.557 0.0333458 109.069 0.0333458C114.78 0.0333458 120.376 0.0333458 126.086 0.0333458C148.014 0.0333458 169.942 -0.100005 191.756 0.166632C203.177 0.29995 214.483 2.43306 225.105 7.76578C233.328 11.8986 240.294 17.898 245.091 26.8303C250.002 36.0293 251.373 46.2946 250.802 56.8269C250.345 66.0258 248.175 74.6918 243.492 82.2906C242.693 84.1574 241.208 86.0238 239.609 88.29Z" fill="#74D414"/>
<path d="M306.421 40.962C307.563 41.7621 308.591 42.2954 309.504 43.0951C313.73 46.295 315.557 50.8275 315.329 56.5603C315.101 62.5597 312.931 67.2258 308.248 69.8922C305.507 71.4919 302.538 72.292 299.568 72.4252C295.228 72.5587 290.774 72.4252 286.434 72.5583C285.064 72.5583 284.836 71.8918 284.836 70.5587C284.836 52.4276 284.836 34.4295 284.836 16.2982C284.836 14.0318 284.835 13.8984 286.777 13.8984C291.345 14.0317 295.914 13.4986 300.482 14.2985C306.192 15.365 310.532 19.3645 311.674 25.3639C312.702 31.6298 311.217 36.9625 306.421 40.962Z" fill="white"/>
<path d="M529.241 47.3614C531.754 51.4945 534.267 55.7606 536.664 59.8933C539.063 64.0264 541.576 68.0259 544.203 72.5588C542.49 72.5588 541.12 72.4252 539.75 72.5588C538.263 72.6919 537.237 72.0254 536.437 70.5588C532.667 63.7597 528.671 57.2269 524.788 50.4277C523.758 48.5613 522.619 47.7616 520.789 48.0279C519.306 48.2946 517.249 47.2283 516.336 48.4281C515.193 49.628 515.993 52.0275 515.879 53.8939C515.879 59.4935 515.766 64.9596 515.879 70.5588C515.879 72.0254 515.536 72.5588 514.166 72.5588C510.51 72.6919 510.51 72.6919 510.51 68.4257C510.51 51.4944 510.51 34.5629 510.51 17.6315C510.51 16.8316 510.51 16.165 510.51 15.3651C510.51 14.2986 510.853 13.7652 511.767 13.8985C516.563 14.0319 521.475 13.4986 526.271 14.4319C535.524 16.165 540.546 25.0974 538.377 35.6295C537.463 40.2956 534.95 43.4951 531.411 45.7617C530.841 46.1615 529.811 46.295 529.241 47.3614Z" fill="white"/>
<path d="M396.987 100.022C396.76 100.288 396.76 100.422 396.647 100.555C395.617 101.355 394.704 102.955 393.56 102.955C392.42 103.088 391.734 101.355 390.821 100.555C384.425 95.089 377.572 94.0226 370.493 98.0222C363.297 102.022 359.414 108.954 359.184 118.286C358.841 129.618 366.38 139.351 376.429 141.084C385.681 142.684 393.677 136.551 396.073 126.285C396.19 125.619 396.417 124.819 396.073 123.886C393.564 123.886 390.934 123.886 388.308 123.886C385.568 123.886 382.825 123.886 380.085 123.886C378.829 123.886 378.145 123.486 378.372 121.886C378.372 121.619 378.372 121.22 378.372 120.953C378.372 118.42 378.372 118.42 380.429 118.42C381.912 118.42 383.398 118.42 384.768 118.42C389.564 118.42 394.477 118.42 399.273 118.42C401.899 118.42 402.013 117.887 401.669 121.619C399.956 144.817 381.912 151.616 368.663 144.55C359.071 139.484 353.018 127.352 354.502 114.82C355.875 103.088 363.981 92.8227 374.376 90.6896C382.942 88.9564 390.364 91.8895 396.53 99.222C396.647 99.3552 396.873 99.7554 396.987 100.022Z" fill="white"/>
<path d="M285.406 118.42C285.406 110.154 285.406 101.755 285.406 93.4893C285.406 91.0896 285.406 90.9564 287.462 90.9564C293.059 91.0896 298.769 90.423 304.365 91.6229C313.502 93.6229 320.24 99.3553 322.752 110.154C325.378 120.686 323.781 130.419 316.814 138.418C312.36 143.484 306.764 145.617 300.71 146.017C296.142 146.283 291.574 146.017 287.005 146.15C285.635 146.15 285.406 145.483 285.406 144.15C285.521 135.484 285.406 126.952 285.406 118.42Z" fill="white"/>
<path d="M319.555 72.5582C320.811 68.6922 322.067 65.0926 323.21 61.4929C328.235 46.5612 333.261 31.6297 338.287 16.6981C338.627 15.6315 338.627 14.0316 339.77 13.8983C341.37 13.6317 343.083 13.4984 344.679 14.0317C345.479 14.2983 345.479 15.6315 345.823 16.4314C350.505 30.4298 355.188 44.2949 359.871 58.2934C361.241 62.2929 362.497 66.1589 363.867 70.1588C364.097 70.8253 364.554 71.4919 364.21 72.2919C364.097 72.2919 364.097 72.4251 363.981 72.4251C359.184 72.8249 359.184 72.8249 357.471 67.6255C356.215 63.7595 354.845 59.8932 353.588 56.0268C353.245 54.8269 352.675 54.2939 351.649 54.2939C345.366 54.2939 339.083 54.2939 332.804 54.2939C331.548 54.2939 331.091 54.9604 330.634 56.1603C329.035 60.9595 327.435 65.6259 325.835 70.4251C325.378 71.8917 324.695 72.6918 323.324 72.4251C322.182 72.4251 321.04 72.5582 319.555 72.5582Z" fill="white"/>
<path d="M503.201 72.5587C501.148 72.5587 499.318 73.2253 497.948 72.2921C496.692 71.3589 496.578 69.0922 496.008 67.4925C494.635 63.7597 493.379 60.0268 492.239 56.1605C491.782 54.8274 491.326 54.2941 490.069 54.2941C483.9 54.2941 477.62 54.4272 471.451 54.2941C470.081 54.2941 469.625 55.0938 469.168 56.4272C467.568 61.2267 465.972 65.8928 464.485 70.6923C464.029 72.1586 463.342 72.6919 462.086 72.5587C460.946 72.4252 459.689 72.5587 458.546 72.5587C458.319 71.2253 458.889 70.2921 459.233 69.3589C465.055 51.8943 470.995 34.2963 476.934 16.8316C477.277 15.765 477.277 14.1652 478.42 14.0319C480.017 13.6319 481.73 13.6319 483.33 14.0319C484.13 14.2985 484.243 15.4984 484.473 16.4316C488.239 27.7637 492.125 38.9625 495.892 50.2946C498.061 56.5603 500.118 62.9596 502.288 69.2258C502.518 70.159 502.744 71.0922 503.201 72.5587Z" fill="white"/>
<path d="M370.833 34.9629C370.833 28.8301 370.833 22.8308 370.833 16.6981C370.833 13.7651 370.833 13.7651 373.463 13.7651C373.803 13.7651 374.146 13.7651 374.603 13.7651C375.516 13.7651 375.973 14.0317 375.973 15.2316C375.973 16.0315 375.973 16.6981 375.973 17.498C375.973 28.2968 375.973 38.9624 375.973 49.7611C375.973 52.6939 376.202 55.4939 377.116 58.16C378.602 62.4262 381.228 65.3593 384.995 66.6924C388.308 67.8923 391.734 67.8923 394.934 66.5592C399.956 64.4261 402.583 60.0264 403.269 53.8938C403.499 52.1609 403.383 50.2945 403.383 48.4281C403.383 37.8957 403.383 27.3636 403.383 16.8314C403.383 13.7651 403.383 13.7651 406.126 13.7651C406.582 13.7651 407.039 13.7651 407.495 13.7651C408.182 13.7651 408.522 14.1651 408.522 14.965C408.522 15.7649 408.522 16.4315 408.522 17.2314C408.522 28.4301 408.522 39.629 408.522 50.8275C408.522 51.2277 408.522 51.6275 408.522 52.1609C408.182 60.4266 405.552 67.4924 398.93 71.2253C391.847 75.2248 384.768 74.8249 378.142 69.6255C373.233 65.7592 371.063 60.0264 370.95 53.2273C370.72 47.0946 370.833 40.962 370.833 34.9629Z" fill="white"/>
<path d="M35.8615 134.418C35.8615 130.419 35.8615 126.286 35.8615 122.286C35.8615 120.953 36.2041 120.42 37.4603 120.42C44.4271 120.42 51.2793 120.42 58.2462 120.42C59.3883 120.42 59.845 120.953 59.845 122.286C59.845 130.286 59.845 138.285 59.845 146.284C59.845 147.75 59.5023 148.417 58.1318 148.417C51.2793 148.417 44.4268 148.417 37.5746 148.417C36.2041 148.417 35.8615 147.75 35.8615 146.284C35.8615 142.417 35.8615 138.418 35.8615 134.418Z" fill="#74D414"/>
<path d="M95.3642 94.0228C95.3642 98.0223 95.3642 101.888 95.3642 105.888C95.3642 107.488 94.9072 108.154 93.5367 108.154C86.7985 108.154 80.0603 108.154 73.3218 108.154C71.8373 108.154 71.4946 107.488 71.4946 105.888C71.4946 98.0223 71.4946 90.1565 71.4946 82.2906C71.4946 80.8244 71.8373 80.291 73.2078 80.291C80.0603 80.291 86.9128 80.291 93.7653 80.291C95.1358 80.291 95.4785 80.8244 95.4785 82.2906C95.2498 86.157 95.3642 90.0233 95.3642 94.0228Z" fill="#74D414"/>
<path d="M71.3802 134.552C71.3802 130.552 71.3802 126.686 71.3802 122.687C71.3802 121.086 71.7229 120.42 73.2077 120.42C79.9459 120.553 86.6841 120.42 93.4223 120.42C94.7928 120.42 95.3641 120.82 95.3641 122.553C95.2498 130.419 95.2498 138.285 95.3641 146.15C95.3641 147.884 94.7928 148.283 93.4223 148.283C86.7984 148.283 80.0602 148.283 73.436 148.283C71.4946 148.283 71.4946 148.15 71.3802 146.017C71.3802 142.151 71.3802 138.418 71.3802 134.552Z" fill="#74D414"/>
<path d="M444.384 19.8978C436.845 19.8978 429.536 19.8978 422.344 19.8978C418.574 19.8978 418.344 19.6311 418.801 15.2316C418.917 14.1651 419.257 13.7651 420.174 13.7651C422.114 13.7651 424.057 13.7651 425.883 13.7651C433.422 13.7651 441.071 13.7651 448.611 13.7651C450.55 13.7651 450.55 13.7651 450.667 16.0315C450.78 18.5646 450.21 20.6977 448.954 22.8308C440.958 36.296 433.079 49.8943 425.197 63.3594C424.74 64.1594 424.283 65.0926 423.713 66.0259C424.397 66.8259 425.197 66.4257 425.883 66.4257C434.106 66.4257 442.328 66.4257 450.55 66.4257C452.607 66.4257 452.607 66.4261 452.607 68.959C452.607 69.6255 452.607 70.2921 452.607 70.8254C452.723 71.8918 452.38 72.4252 451.35 72.292C451.124 72.292 450.78 72.292 450.55 72.292C440.272 72.292 429.996 72.292 419.601 72.292C417.318 72.292 417.661 72.292 417.431 69.8922C417.318 67.4924 417.888 65.4925 419.144 63.3594C427.14 49.8943 435.019 36.296 442.901 22.8308C443.358 22.1642 444.041 21.4976 444.384 19.8978Z" fill="white"/>
<path d="M65.8982 52.5608C65.8982 56.5603 65.8982 60.4266 65.8982 64.4262C65.8982 66.0259 65.5556 66.6924 64.0708 66.6924C57.4466 66.5593 50.7084 66.6924 44.0845 66.6924C42.714 66.6924 42.1427 66.2926 42.1427 64.5593C42.257 56.5603 42.1427 48.5613 42.1427 40.5622C42.1427 39.2288 42.4853 38.6958 43.7418 38.6958C50.594 38.6958 57.4466 38.6958 64.2991 38.6958C65.6696 38.6958 66.0122 39.3623 66.0122 40.6954C65.8982 44.5617 65.8982 48.5613 65.8982 52.5608Z" fill="#74D414"/>
<path d="M467.342 145.883C467.225 144.684 467.798 143.884 468.025 142.817C473.508 126.552 478.877 110.288 484.356 94.156C484.7 93.0897 484.7 91.4896 485.729 91.2232C487.213 90.823 488.812 90.9566 490.296 91.2232C491.209 91.3564 491.209 92.6895 491.552 93.4895C495.208 104.155 498.748 114.821 502.401 125.486C504.344 131.218 506.284 136.951 508.227 142.684C508.57 143.617 509.14 144.55 508.913 145.75C504.231 146.417 504.231 146.417 502.631 141.618C501.374 138.018 500.118 134.285 498.975 130.685C498.518 129.486 498.061 128.819 496.805 128.952C491.096 129.086 485.27 129.086 479.56 128.952C478.304 128.952 477.847 129.619 477.391 130.819C476.021 135.085 474.534 139.351 473.051 143.617C472.251 146.15 472.138 146.15 469.968 146.15C469.055 146.017 468.138 146.284 467.342 145.883Z" fill="white"/>
<path d="M59.7309 174.414C59.7309 178.413 59.7309 182.28 59.7309 186.279C59.7309 187.746 59.3883 188.412 58.0178 188.279C51.1653 188.279 44.3127 188.279 37.4602 188.279C36.204 188.279 35.7471 187.879 35.7471 186.279C35.7471 178.413 35.8614 170.547 35.7471 162.681C35.7471 160.949 36.4323 160.548 37.6888 160.548C44.3127 160.548 51.0509 160.548 57.6752 160.548C59.6166 160.548 59.6166 160.682 59.6166 162.948C59.7309 166.681 59.7309 170.547 59.7309 174.414Z" fill="#74D414"/>
<path d="M83.1439 188.279C79.8317 188.279 76.5197 188.279 73.3218 188.279C71.8373 188.279 71.4946 187.745 71.4946 186.146C71.6086 178.413 71.6086 170.547 71.4946 162.815C71.4946 161.215 71.9512 160.548 73.3218 160.548C80.0603 160.548 86.7985 160.548 93.5367 160.548C94.6789 160.548 95.3642 160.815 95.3642 162.415C95.3642 170.414 95.3642 178.413 95.3642 186.412C95.3642 187.745 95.0215 188.279 93.7653 188.279C90.2248 188.279 86.6842 188.279 83.1439 188.279Z" fill="#74D414"/>
<path d="M11.8777 160.548C15.3039 160.548 18.616 160.548 22.0423 160.548C23.2986 160.548 23.7554 160.949 23.7554 162.548C23.7554 170.547 23.7554 178.546 23.7554 186.545C23.7554 188.012 23.2985 188.412 22.1564 188.279C15.3039 188.279 8.45144 188.279 1.59894 188.279C0.456862 188.279 0 187.879 0 186.545C0 178.546 0 170.547 0 162.548C0 160.949 0.456833 160.548 1.71313 160.548C5.13936 160.548 8.56566 160.548 11.8777 160.548Z" fill="#74D414"/>
<path d="M444.954 121.353C444.954 114.154 444.954 107.088 444.954 99.8889C444.954 96.4227 445.298 96.6894 442.328 96.6894C439.702 96.6894 437.075 96.5559 434.336 96.6894C432.962 96.6894 432.506 96.156 432.622 94.6895C432.622 94.2896 432.622 93.8894 432.622 93.3564C432.622 90.9566 432.622 90.9566 434.676 90.9566C443.015 90.9566 451.237 90.9566 459.573 90.9566C461.629 90.9566 461.746 90.6899 461.746 93.3564C461.746 93.4896 461.746 93.6231 461.746 93.6231C461.746 96.8226 461.972 96.6894 459.346 96.6894C457.063 96.6894 454.777 96.6894 452.493 96.6894C449.294 96.6894 449.637 96.2892 449.637 100.156C449.637 112.821 449.637 125.486 449.637 138.151C449.637 140.018 449.637 141.751 449.637 143.617C449.637 145.884 449.637 146.017 447.811 146.017C444.271 146.017 444.841 146.284 444.841 142.684C444.954 135.618 444.954 128.419 444.954 121.353Z" fill="white"/>
<path d="M520.675 118.553C520.675 110.421 520.675 102.155 520.675 94.023C520.675 90.8232 520.562 91.2234 523.188 91.0898C523.645 91.0898 524.102 91.0898 524.558 91.0898C525.245 91.0898 525.588 91.49 525.588 92.2897C525.588 93.0898 525.588 94.023 525.588 94.8227C525.588 108.421 525.588 122.02 525.588 135.751C525.588 136.285 525.588 136.818 525.588 137.352C525.588 140.418 525.245 140.551 528.215 140.551C532.097 140.551 535.867 140.551 539.75 140.551C541.346 140.551 542.833 140.551 544.433 140.551C545.459 140.551 545.802 140.951 545.916 142.151C546.146 146.15 546.146 146.15 542.719 146.15C536.094 146.15 529.354 146.15 522.732 146.15C520.789 146.15 520.789 146.15 520.789 143.884C520.675 135.352 520.675 126.952 520.675 118.553Z" fill="white"/>
<path d="M341.483 118.553C341.483 126.952 341.483 135.351 341.483 143.75C341.483 146.017 341.483 146.017 339.54 146.017C338.857 146.017 338.287 146.017 337.6 146.017C336.914 146.017 336.574 145.617 336.574 144.817C336.574 144.151 336.574 143.484 336.574 142.951C336.574 126.686 336.574 110.421 336.574 94.156C336.574 93.4895 336.574 92.823 336.574 92.2896C336.574 91.4896 336.914 91.2232 337.6 91.0897C337.827 91.0897 337.944 91.0897 338.17 91.0897C342.17 91.0897 341.37 90.6899 341.483 94.6894C341.483 102.688 341.483 110.687 341.483 118.553Z" fill="white"/>
<path d="M414.461 118.553C414.461 110.421 414.461 102.155 414.461 94.0227C414.461 90.5562 414.461 91.0896 416.974 91.0896C419.257 91.0896 419.257 91.0896 419.257 93.8892C419.257 110.421 419.257 126.819 419.257 143.35C419.257 144.284 419.714 145.617 418.801 145.883C417.544 146.283 416.061 146.283 414.805 145.883C414.691 145.883 414.575 145.35 414.575 145.084C414.575 144.284 414.575 143.617 414.575 142.817C414.461 134.685 414.461 126.686 414.461 118.553Z" fill="white"/>
<path d="M503.887 181.08C502.518 181.613 501.374 181.48 500.804 179.747C500.688 179.347 500.461 178.947 500.231 178.68C499.775 177.88 499.661 176.547 498.635 176.814C497.491 177.08 498.178 178.413 497.948 179.214C497.835 179.48 497.948 179.88 497.948 180.147C497.948 181.213 497.378 181.347 496.578 181.347C495.892 181.347 495.665 180.813 495.665 180.147C495.665 176.547 495.665 172.947 495.665 169.348C495.665 168.414 496.122 168.015 496.805 168.015C497.948 168.015 498.975 168.015 500.118 168.281C502.744 168.948 504.001 171.881 502.631 174.414C501.604 176.28 502.174 177.48 502.861 178.947C503.317 179.48 503.774 180.147 503.887 181.08Z" fill="#76D517"/>
<path d="M525.245 174.547C525.245 171.88 526.271 169.747 528.554 168.414C530.727 167.214 532.781 167.481 534.724 169.214C535.18 169.614 535.98 170.147 535.18 170.947C534.724 171.48 534.154 172.28 533.354 171.48C533.124 171.214 532.897 171.08 532.667 170.947C530.954 170.014 529.354 170.414 528.328 172.014C527.415 173.48 527.301 175.613 528.214 177.08C529.241 178.68 530.954 179.213 532.554 178.413C532.667 178.413 532.667 178.28 532.781 178.28C533.694 177.346 534.837 176.813 535.407 178.413C535.867 179.746 534.494 180.279 533.694 180.813C529.928 183.213 525.245 180.013 525.245 174.547Z" fill="#77D518"/>
<path d="M505.827 168.281C507.54 167.481 508.457 168.147 508.913 169.881C509.597 172.547 510.397 175.08 511.426 178.28C512.453 174.947 513.253 172.28 514.053 169.614C514.279 168.814 514.393 168.014 515.423 167.881C516.449 167.748 517.022 168.281 516.679 169.347C515.536 172.947 514.393 176.547 513.253 180.013C512.91 180.946 512.34 181.213 511.54 181.213C510.627 181.213 509.94 181.079 509.597 179.88C508.34 176.147 507.084 172.28 505.827 168.281Z" fill="#78D51A"/>
<path d="M478.19 181.613C476.934 181.479 475.791 181.08 475.107 179.746C474.764 179.213 474.194 178.413 474.764 177.747C475.221 177.213 475.907 177.213 476.591 177.613C477.047 177.88 477.277 178.547 477.847 178.68C478.534 178.813 479.217 178.813 479.56 178.013C479.904 177.08 479.447 176.547 478.877 176.28C478.19 175.88 477.391 175.614 476.591 175.08C475.221 174.28 474.764 172.814 474.991 171.081C475.107 169.347 476.021 168.281 477.277 167.881C478.76 167.348 480.017 167.881 480.93 169.214C481.16 169.614 481.617 170.147 481.387 170.681C481.16 171.347 480.473 171.48 480.017 171.347C479.56 171.214 479.104 170.681 478.647 170.414C478.19 170.147 477.734 170.414 477.504 170.947C477.277 171.481 477.277 172.014 477.62 172.414C478.19 173.081 479.104 173.214 479.79 173.614C481.843 174.68 482.643 176.147 482.187 178.28C481.73 180.28 480.017 181.746 478.19 181.613Z" fill="#78D519"/>
<path d="M488.813 181.346C485.043 181.346 485.5 181.746 485.5 177.48C485.5 175.08 485.5 172.814 485.5 170.414C485.5 167.881 485.5 167.881 487.783 167.881C488.926 167.881 489.952 167.881 491.096 167.881C491.782 167.881 492.009 168.414 492.009 169.081C492.009 169.881 491.782 170.281 491.096 170.414C490.296 170.414 489.496 170.414 488.696 170.547C488.013 170.547 487.783 171.081 487.783 171.881C487.783 172.68 488.013 173.08 488.696 173.214C489.382 173.347 490.182 173.214 490.869 173.347C491.552 173.48 491.666 174.014 491.666 174.68C491.666 175.214 491.439 175.747 490.869 175.747C490.182 175.747 489.612 175.88 488.926 175.88C487.899 175.88 487.783 176.547 487.783 177.613C487.783 178.547 488.239 178.947 488.926 178.947C489.612 178.947 490.409 178.947 491.096 178.947C492.009 178.947 492.122 179.613 492.122 180.413C492.122 181.346 491.666 181.479 490.982 181.479C490.182 181.346 489.496 181.346 488.813 181.346Z" fill="#78D519"/>
<path d="M538.95 174.414C538.95 174.014 538.95 173.614 538.95 173.08C539.063 171.48 538.263 169.214 539.407 168.281C540.776 167.214 542.719 168.014 544.433 167.881C545.116 167.881 545.346 168.414 545.346 169.214C545.346 170.014 545.116 170.414 544.433 170.414C543.746 170.414 542.946 170.414 542.263 170.414C541.346 170.414 541.233 171.081 541.233 171.88C541.233 172.68 541.576 173.08 542.263 173.08C542.946 173.08 543.516 173.08 544.203 173.214C544.889 173.214 545.116 173.747 545.116 174.414C545.116 175.213 544.773 175.613 544.203 175.613C543.633 175.613 543.06 175.613 542.603 175.613C541.69 175.613 541.346 176.147 541.346 177.213C541.346 178.28 541.69 178.813 542.603 178.68C543.289 178.68 544.089 178.68 544.773 178.68C545.459 178.68 545.689 179.213 545.689 180.013C545.689 180.813 545.346 181.213 544.659 181.213C543.06 181.213 541.576 181.213 539.977 181.213C539.063 181.213 538.95 180.546 538.95 179.746C538.95 178.013 538.95 176.147 538.95 174.414Z" fill="#78D518"/>
<path d="M462.202 167.881C463.116 167.881 464.029 167.881 464.942 167.881C465.629 167.881 465.969 168.281 465.969 168.947C466.085 169.614 465.855 170.414 465.172 170.281C463.116 170.147 463.342 171.614 463.342 173.08C463.342 175.214 463.342 177.347 463.342 179.48C463.342 180.413 463.229 181.213 462.202 181.213C461.059 181.213 460.829 180.413 460.829 179.346C460.829 176.946 460.829 174.68 460.829 172.28C460.829 171.081 460.716 170.147 459.346 170.281C458.546 170.281 458.203 169.881 458.319 168.947C458.319 167.881 458.889 167.748 459.576 167.748C460.603 167.881 461.402 167.881 462.202 167.881Z" fill="#7ED621"/>
<path d="M455.233 174.414C455.233 176.28 455.233 178.013 455.233 179.88C455.233 180.946 454.777 181.479 453.863 181.346C453.063 181.346 452.72 180.813 452.72 180.013C452.72 176.414 452.72 172.814 452.72 169.214C452.72 168.281 453.18 167.881 453.863 167.881C454.777 167.881 455.12 168.414 455.12 169.347C455.12 171.081 455.233 172.814 455.233 174.414Z" fill="#84D92E"/>
<path d="M522.162 174.814C522.162 176.413 522.162 178.013 522.162 179.613C522.162 180.546 522.162 181.346 521.132 181.346C520.105 181.346 519.992 180.679 519.992 179.746C519.992 176.413 519.992 172.947 519.992 169.614C519.992 168.681 519.992 167.881 521.019 167.881C522.275 167.881 522.162 168.814 522.162 169.748C522.162 171.481 522.162 173.214 522.162 174.814Z" fill="#79D61C"/>
<path d="M179.878 127.619C179.878 123.22 179.878 118.687 179.878 114.287C179.878 113.087 180.106 112.288 181.363 112.288C186.502 112.554 191.756 111.754 196.895 112.821C202.263 114.021 206.489 116.954 207.859 123.62C209.458 131.752 206.831 139.351 199.294 141.884C197.695 142.417 196.096 142.951 194.497 142.951C190.271 142.951 185.931 142.951 181.706 143.084C180.449 143.084 179.878 142.684 179.992 141.084C179.992 136.551 179.878 132.019 179.878 127.619Z" fill="black"/>
<path d="M179.878 58.1598C179.878 54.5605 179.878 50.9608 179.878 47.3611C179.878 46.1612 179.992 45.228 181.363 45.228C186.16 45.3612 191.071 44.8282 195.753 46.2948C202.948 48.4279 206.26 57.0934 202.834 64.8258C201.92 66.9589 200.321 68.4254 198.494 69.3586C196.21 70.5585 193.812 70.9584 191.299 71.0919C188.101 71.2251 184.903 71.0919 181.706 71.2251C180.221 71.2251 179.878 70.5585 179.878 68.9588C179.992 65.3591 179.878 61.7595 179.878 58.1598Z" fill="black"/>
<path d="M289.861 55.4939C289.861 52.5608 289.861 49.4945 289.861 46.5614C289.861 45.2283 290.204 44.5618 291.46 44.6949C294.886 44.8284 298.198 44.5618 301.624 45.0951C307.335 46.0283 310.532 50.2945 310.19 56.4271C309.962 60.4267 308.362 63.2263 305.279 64.9595C303.337 66.0259 301.282 66.4258 299.226 66.5593C296.713 66.6924 294.086 66.5593 291.574 66.6924C290.318 66.6924 289.975 66.1591 289.975 64.826C289.975 61.6266 289.861 58.5602 289.861 55.4939Z" fill="black"/>
<path d="M295.114 19.8977C296.942 19.8977 299.111 19.7644 301.282 20.6977C304.708 22.0308 306.649 24.9639 306.764 28.9634C306.878 32.8296 305.05 36.0293 301.738 37.629C299.911 38.5622 298.084 38.8289 296.142 38.6957C294.201 38.5622 291.574 39.6289 290.318 38.2955C288.947 36.9625 289.975 33.8962 289.861 31.6298C289.747 28.4301 289.861 25.2305 289.861 22.0308C289.861 20.5643 290.203 19.8977 291.574 20.0311C292.602 20.0311 293.744 19.8977 295.114 19.8977Z" fill="black"/>
<path d="M515.993 30.83C515.993 27.7637 515.993 24.6974 515.993 21.6311C515.993 20.8312 515.879 20.0313 516.906 20.0313C520.219 20.1646 523.645 19.6313 526.958 20.6979C531.524 22.1644 533.811 25.7639 533.697 31.23C533.697 36.4293 531.411 39.7623 526.845 41.3624C523.645 42.4287 520.332 41.8954 517.023 42.0289C515.993 42.0289 515.879 41.362 515.879 40.4288C515.993 37.0962 515.993 34.0297 515.993 30.83Z" fill="black"/>
<path d="M290.318 118.153C290.318 111.754 290.318 105.355 290.318 98.9555C290.318 96.6893 290.318 96.5557 292.259 96.6893C296.143 96.8224 300.14 96.4226 304.023 97.3558C317.956 100.822 321.154 115.087 318.07 126.286C316.243 132.685 312.246 136.684 306.878 138.818C304.708 139.751 302.538 140.284 300.14 140.284C297.284 140.284 294.429 140.284 291.688 140.418C290.774 140.418 290.318 140.017 290.432 138.951C290.432 138.285 290.432 137.618 290.432 137.085C290.318 130.818 290.318 124.553 290.318 118.153Z" fill="black"/>
<path d="M342.053 22.2974C343.766 26.2969 350.162 45.6279 350.619 47.8945C349.819 48.2944 349.019 48.1612 348.222 48.1612C343.423 48.1612 338.627 48.1612 333.374 48.1612C336.344 39.4953 339.083 31.0964 342.053 22.2974Z" fill="black"/>
<path d="M489.496 48.1612C483.557 48.1612 477.96 48.1612 472.024 48.1612C474.877 39.4953 477.734 31.2297 480.817 22.0308C483.786 31.0964 486.643 39.4953 489.496 48.1612Z" fill="black"/>
<path d="M488.469 99.6222C491.096 107.355 493.722 115.22 496.348 123.219C490.869 123.219 485.613 123.219 479.904 123.219C482.643 115.22 485.156 107.355 487.783 99.6222C488.126 99.489 488.239 99.6222 488.469 99.6222Z" fill="black"/>
<path d="M497.948 172.147C498.061 171.48 497.718 170.414 498.861 170.414C499.891 170.414 500.688 170.814 500.688 172.28C500.688 173.347 499.891 174.147 498.861 174.147C498.061 174.014 497.948 173.747 497.948 172.147Z" fill="white"/>
</g>
<defs>
<clipPath id="clip0_21_2">
<rect width="546" height="189" fill="white"/>
</clipPath>
</defs>
</svg>
