<svg width="1686" height="545" viewBox="0 0 1686 545" fill="none" xmlns="http://www.w3.org/2000/svg">
<path d="M739.892 254.593C751.883 263.82 762.11 273.815 770.926 285.732C787.501 308.798 795.965 334.94 797.376 363.773C798.787 392.221 795.965 419.516 785.033 445.658C773.748 473.337 755.409 494.097 731.78 509.474C707.094 525.621 679.939 534.078 651.373 539.076C628.45 542.92 605.526 544.074 582.25 544.074C528.293 544.074 474.688 544.458 420.73 544.074C392.869 543.689 365.009 543.305 337.148 543.305C332.916 543.305 331.153 542.151 331.153 537.154C331.505 514.856 331.153 492.175 331.153 469.877C331.153 463.342 331.153 463.342 337.148 463.342C356.545 463.342 375.941 463.342 395.338 463.342C402.391 463.342 402.391 463.342 402.391 456.038C402.391 449.118 402.391 442.582 402.391 435.662C402.391 428.743 402.391 428.358 396.043 428.358C377.352 428.358 358.661 428.358 340.322 428.358C329.742 428.358 330.8 429.127 330.8 417.978C330.8 397.219 330.8 376.844 330.8 356.084C330.8 348.011 330.8 348.011 337.853 348.011C356.897 348.011 376.294 348.011 395.338 348.011C402.391 348.011 402.391 348.011 402.391 340.707C402.391 332.633 402.039 324.56 402.391 316.872C402.744 311.874 400.628 310.721 396.396 310.721C377.352 310.721 358.661 310.721 339.617 310.721C329.742 310.721 330.447 311.49 330.447 301.11C330.447 279.966 330.447 258.822 330.447 237.678C330.447 230.758 330.447 230.758 337.148 230.758C356.545 230.758 375.941 230.758 395.338 230.758C402.039 230.758 402.038 230.758 402.038 223.069C402.038 216.149 402.038 208.845 402.038 201.925C402.038 193.468 402.039 193.083 394.28 193.083C376.294 193.083 358.308 193.083 340.322 193.083C338.559 193.083 336.795 193.083 335.385 193.083C331.858 193.468 330.447 191.545 330.447 187.701C330.447 177.706 330.447 167.326 330.447 157.33C330.447 145.413 330.447 133.496 330.447 121.194C330.447 111.583 330.095 112.736 338.911 112.352C357.603 112.352 376.294 112.352 394.633 112.352C402.391 112.352 402.038 113.12 402.038 104.663C402.038 98.8963 402.038 93.1297 402.038 86.9787C402.038 80.4433 401.686 80.4432 395.69 80.4432C377.705 80.4432 359.719 80.4432 341.733 80.4432C326.921 80.4432 329.39 81.981 329.037 66.9879C329.037 47.7661 329.037 28.16 329.037 8.93815C329.037 0.480545 329.037 0.096156 336.795 0.096156C354.429 0.096156 371.709 0.096156 389.343 0.096156C457.054 0.096156 524.766 -0.288374 592.125 0.480499C627.392 0.864935 662.305 7.01596 695.103 22.3934C720.495 34.3109 742.008 51.6105 756.82 77.3678C771.984 103.894 776.216 133.495 774.453 163.866C773.042 190.392 766.342 215.381 751.883 237.293C749.414 242.676 744.829 248.058 739.892 254.593Z" fill="#74D414"/>
<path d="M946.2 118.118C949.727 120.425 952.901 121.963 955.722 124.269C968.771 133.496 974.413 146.566 973.708 163.097C973.003 180.397 966.302 193.852 951.843 201.541C943.379 206.154 934.21 208.461 925.041 208.845C911.639 209.23 897.885 208.845 884.484 209.229C880.252 209.229 879.547 207.307 879.547 203.463C879.547 151.18 879.547 99.2809 879.547 46.9975C879.547 40.4621 879.546 40.0775 885.542 40.0775C899.648 40.4619 913.755 38.9244 927.862 41.231C945.495 44.3065 958.896 55.8395 962.423 73.1392C965.597 91.2077 961.012 106.585 946.2 118.118Z" fill="black"/>
<path d="M1634.25 136.571C1642.01 148.489 1649.77 160.791 1657.17 172.708C1664.58 184.626 1672.34 196.159 1680.45 209.23C1675.16 209.23 1670.93 208.845 1666.7 209.23C1662.11 209.614 1658.94 207.692 1656.47 203.463C1644.83 183.857 1632.49 165.019 1620.5 145.413C1617.32 140.031 1613.8 137.725 1608.15 138.493C1603.57 139.262 1597.22 136.187 1594.4 139.647C1590.87 143.107 1593.34 150.026 1592.99 155.408C1592.99 171.555 1592.64 187.317 1592.99 203.463C1592.99 207.692 1591.93 209.23 1587.7 209.23C1576.41 209.614 1576.41 209.614 1576.41 197.312C1576.41 148.489 1576.41 99.6653 1576.41 50.8419C1576.41 48.5353 1576.41 46.6131 1576.41 44.3065C1576.41 41.231 1577.47 39.6931 1580.29 40.0775C1595.1 40.462 1610.27 38.9243 1625.08 41.6154C1653.65 46.613 1669.16 72.3704 1662.46 102.741C1659.64 116.196 1651.88 125.422 1640.95 131.958C1639.19 133.111 1636.01 133.496 1634.25 136.571Z" fill="rgb(56, 56, 56)"/>
<path d="M1225.86 288.423C1225.16 289.192 1225.16 289.577 1224.81 289.961C1221.63 292.268 1218.81 296.881 1215.28 296.881C1211.76 297.265 1209.64 292.268 1206.82 289.961C1187.07 274.199 1165.91 271.124 1144.05 282.657C1121.83 294.19 1109.84 314.181 1109.13 341.091C1108.07 373.768 1131.35 401.832 1162.38 406.83C1190.95 411.443 1215.64 393.759 1223.04 364.157C1223.4 362.235 1224.1 359.928 1223.04 357.237C1215.29 357.237 1207.17 357.237 1199.06 357.237C1190.6 357.237 1182.13 357.237 1173.67 357.237C1169.79 357.237 1167.68 356.084 1168.38 351.471C1168.38 350.702 1168.38 349.549 1168.38 348.78C1168.38 341.476 1168.38 341.476 1174.73 341.476C1179.31 341.476 1183.9 341.476 1188.13 341.476C1202.94 341.476 1218.11 341.476 1232.92 341.476C1241.03 341.476 1241.38 339.938 1240.32 350.702C1235.03 417.594 1179.31 437.2 1138.4 416.825C1108.78 402.216 1090.09 367.233 1094.67 331.096C1098.91 297.265 1123.94 267.664 1156.04 261.513C1182.49 256.515 1205.41 264.973 1224.45 286.117C1224.81 286.501 1225.51 287.655 1225.86 288.423Z" fill="rgb(56, 56, 56)"/>
<path d="M881.31 341.476C881.31 317.641 881.31 293.421 881.31 269.586C881.31 262.666 881.31 262.282 887.658 262.282C904.939 262.666 922.572 260.744 939.852 264.204C968.066 269.971 988.873 286.501 996.631 317.641C1004.74 348.011 999.806 376.075 978.293 399.141C964.539 413.75 947.259 419.901 928.567 421.054C914.461 421.823 900.354 421.054 886.247 421.438C882.015 421.438 881.31 419.516 881.31 415.672C881.663 390.683 881.31 366.08 881.31 341.476Z" fill="black"/>
<path d="M986.758 209.229C990.637 198.081 994.516 187.701 998.043 177.321C1013.56 134.264 1029.08 91.2076 1044.6 48.1507C1045.65 45.0752 1045.65 40.4618 1049.18 40.0774C1054.12 39.3085 1059.41 38.9242 1064.34 40.462C1066.81 41.2308 1066.81 45.0752 1067.87 47.3818C1082.33 87.7476 1096.79 127.729 1111.25 168.095C1115.48 179.628 1119.36 190.776 1123.59 202.31C1124.3 204.232 1125.71 206.154 1124.65 208.461C1124.3 208.461 1124.3 208.845 1123.94 208.845C1109.13 209.998 1109.13 209.998 1103.84 195.005C1099.96 183.857 1095.73 172.708 1091.85 161.559C1090.79 158.099 1089.03 156.562 1085.86 156.562C1066.46 156.562 1047.06 156.562 1027.67 156.562C1023.79 156.562 1022.38 158.484 1020.97 161.944C1016.03 175.783 1011.09 189.239 1006.15 203.078C1004.74 207.307 1002.63 209.614 998.396 208.845C994.869 208.845 991.342 209.229 986.758 209.229Z" fill="rgb(56, 56, 56)"/>
<path d="M1553.84 209.23C1547.5 209.23 1541.85 211.152 1537.62 208.461C1533.74 205.77 1533.39 199.234 1531.63 194.621C1527.39 183.857 1523.51 173.093 1519.99 161.944C1518.58 158.1 1517.17 156.562 1513.29 156.562C1494.24 156.562 1474.85 156.946 1455.8 156.562C1451.57 156.562 1450.16 158.868 1448.75 162.713C1443.81 176.553 1438.88 190.008 1434.29 203.848C1432.88 208.076 1430.76 209.614 1426.88 209.23C1423.36 208.845 1419.48 209.23 1415.95 209.23C1415.25 205.385 1417.01 202.694 1418.07 200.003C1436.05 149.642 1454.39 98.8964 1472.73 48.5352C1473.79 45.4597 1473.79 40.8466 1477.32 40.4621C1482.25 39.3088 1487.54 39.3088 1492.48 40.4621C1494.95 41.231 1495.3 44.6909 1496.01 47.3819C1507.64 80.059 1519.64 112.352 1531.27 145.029C1537.97 163.097 1544.32 181.55 1551.02 199.619C1551.73 202.31 1552.43 205.001 1553.84 209.23Z" fill="rgb(56, 56, 56)"/>
<path d="M1145.1 100.819C1145.1 83.1345 1145.1 65.8348 1145.1 48.1507C1145.1 39.6931 1145.1 39.6931 1153.22 39.6931C1154.27 39.6931 1155.33 39.6931 1156.74 39.6931C1159.56 39.6931 1160.97 40.4619 1160.97 43.9218C1160.97 46.2284 1160.97 48.1506 1160.97 50.4573C1160.97 81.5966 1160.97 112.352 1160.97 143.491C1160.97 151.948 1161.68 160.022 1164.5 167.71C1169.09 180.012 1177.2 188.47 1188.83 192.314C1199.06 195.774 1209.64 195.774 1219.52 191.93C1235.03 185.779 1243.14 173.092 1245.26 155.408C1245.97 150.411 1245.61 145.029 1245.61 139.647C1245.61 109.276 1245.61 78.9055 1245.61 48.5351C1245.61 39.693 1245.61 39.6931 1254.08 39.6931C1255.49 39.6931 1256.9 39.6931 1258.31 39.6931C1260.43 39.6931 1261.48 40.8465 1261.48 43.1531C1261.48 45.4597 1261.48 47.3817 1261.48 49.6883C1261.48 81.981 1261.48 114.274 1261.48 146.566C1261.48 147.72 1261.48 148.873 1261.48 150.411C1260.43 174.246 1252.31 194.621 1231.86 205.385C1209.99 216.918 1188.13 215.765 1167.67 200.772C1152.51 189.623 1145.81 173.092 1145.46 153.486C1144.75 135.802 1145.1 118.118 1145.1 100.819Z" fill="rgb(56, 56, 56)"/>
<path d="M110.737 387.608C110.737 376.075 110.737 364.157 110.737 352.624C110.737 348.78 111.795 347.242 115.674 347.242C137.187 347.242 158.346 347.242 179.859 347.242C183.386 347.242 184.796 348.78 184.796 352.624C184.796 375.691 184.796 398.757 184.796 421.823C184.796 426.052 183.738 427.974 179.506 427.974C158.346 427.974 137.186 427.974 116.027 427.974C111.795 427.974 110.737 426.052 110.737 421.823C110.737 410.674 110.737 399.141 110.737 387.608Z" fill="#74D414"/>
<path d="M294.476 271.124C294.476 282.657 294.476 293.805 294.476 305.339C294.476 309.952 293.065 311.874 288.833 311.874C268.026 311.874 247.219 311.874 226.411 311.874C221.827 311.874 220.769 309.952 220.769 305.339C220.769 282.657 220.769 259.975 220.769 237.293C220.769 233.065 221.827 231.527 226.059 231.527C247.219 231.527 268.379 231.527 289.539 231.527C293.771 231.527 294.829 233.065 294.829 237.293C294.123 248.442 294.476 259.591 294.476 271.124Z" fill="#74D414"/>
<path d="M220.416 387.992C220.416 376.459 220.416 365.311 220.416 353.778C220.416 349.164 221.474 347.242 226.059 347.242C246.866 347.627 267.673 347.242 288.48 347.242C292.712 347.242 294.476 348.395 294.476 353.393C294.123 376.075 294.123 398.757 294.476 421.438C294.476 426.436 292.712 427.589 288.48 427.589C268.026 427.589 247.219 427.589 226.764 427.589C220.769 427.589 220.769 427.205 220.416 421.054C220.416 409.905 220.416 399.141 220.416 387.992Z" fill="#74D414"/>
<path d="M1372.22 57.3771C1348.94 57.3771 1326.37 57.3771 1304.16 57.3771C1292.52 57.3771 1291.81 56.6082 1293.22 43.9218C1293.58 40.8463 1294.63 39.6931 1297.46 39.6931C1303.45 39.6931 1309.45 39.6931 1315.09 39.6931C1338.37 39.6931 1361.99 39.6931 1385.27 39.6931C1391.26 39.6931 1391.26 39.6931 1391.62 46.2285C1391.97 53.5328 1390.21 59.6837 1386.33 65.8347C1361.64 104.663 1337.31 143.875 1312.97 182.703C1311.56 185.01 1310.15 187.701 1308.39 190.392C1310.5 192.699 1312.97 191.545 1315.09 191.545C1340.48 191.545 1365.87 191.545 1391.26 191.545C1397.61 191.545 1397.61 191.546 1397.61 198.85C1397.61 200.772 1397.61 202.694 1397.61 204.232C1397.97 207.307 1396.91 208.845 1393.73 208.461C1393.03 208.461 1391.97 208.461 1391.26 208.461C1359.52 208.461 1327.79 208.461 1295.69 208.461C1288.64 208.461 1289.7 208.461 1288.99 201.541C1288.64 194.621 1290.4 188.854 1294.28 182.703C1318.97 143.875 1343.3 104.663 1367.64 65.8347C1369.05 63.9125 1371.16 61.9903 1372.22 57.3771Z" fill="rgb(56, 56, 56)"/>
<path d="M203.488 151.564C203.488 163.097 203.488 174.246 203.488 185.779C203.488 190.392 202.43 192.314 197.845 192.314C177.39 191.93 156.583 192.314 136.129 192.314C131.897 192.314 130.133 191.161 130.133 186.163C130.486 163.097 130.133 140.031 130.133 116.965C130.133 113.12 131.191 111.583 135.071 111.583C156.23 111.583 177.39 111.583 198.55 111.583C202.782 111.583 203.84 113.505 203.84 117.349C203.488 128.498 203.488 140.031 203.488 151.564Z" fill="#74D414"/>
<path d="M1443.11 420.669C1442.75 417.209 1444.52 414.903 1445.22 411.827C1462.15 364.926 1478.73 318.025 1495.65 271.508C1496.71 268.433 1496.71 263.819 1499.89 263.051C1504.47 261.897 1509.41 262.282 1513.99 263.051C1516.81 263.435 1516.81 267.279 1517.87 269.586C1529.16 300.341 1540.09 331.096 1551.37 361.851C1557.37 378.381 1563.36 394.912 1569.36 411.443C1570.42 414.134 1572.18 416.825 1571.48 420.285C1557.02 422.207 1557.02 422.207 1552.08 408.368C1548.2 397.988 1544.32 387.224 1540.79 376.844C1539.38 373.384 1537.97 371.462 1534.09 371.846C1516.46 372.231 1498.47 372.231 1480.84 371.846C1476.96 371.846 1475.55 373.768 1474.14 377.228C1469.91 389.53 1465.32 401.832 1460.74 414.134C1458.27 421.438 1457.92 421.438 1451.22 421.438C1448.4 421.054 1445.57 421.823 1443.11 420.669Z" fill="rgb(56, 56, 56)"/>
<path d="M184.444 502.939C184.444 514.472 184.444 525.621 184.444 537.154C184.444 541.383 183.386 543.305 179.154 542.92C157.994 542.92 136.834 542.92 115.674 542.92C111.795 542.92 110.384 541.767 110.384 537.154C110.384 514.472 110.737 491.79 110.384 469.108C110.384 464.111 112.5 462.957 116.38 462.957C136.834 462.957 157.641 462.957 178.096 462.957C184.091 462.957 184.091 463.342 184.091 469.877C184.444 480.642 184.444 491.79 184.444 502.939Z" fill="#74D414"/>
<path d="M256.741 542.92C246.513 542.92 236.286 542.92 226.411 542.92C221.827 542.92 220.769 541.382 220.769 536.769C221.121 514.472 221.121 491.79 220.769 469.493C220.769 464.88 222.179 462.957 226.411 462.957C247.219 462.957 268.026 462.957 288.833 462.957C292.36 462.957 294.476 463.726 294.476 468.34C294.476 491.406 294.476 514.472 294.476 537.538C294.476 541.382 293.418 542.92 289.539 542.92C278.606 542.92 267.673 542.92 256.741 542.92Z" fill="#74D414"/>
<path d="M36.6773 462.957C47.2572 462.957 57.4846 462.957 68.0646 462.957C71.9439 462.957 73.3545 464.111 73.3545 468.724C73.3545 491.79 73.3545 514.856 73.3545 537.922C73.3545 542.151 71.9438 543.305 68.4171 542.92C47.2572 542.92 26.0973 542.92 4.9374 542.92C1.41075 542.92 0 541.767 0 537.922C0 514.856 0 491.79 0 468.724C0 464.111 1.41066 462.957 5.28998 462.957C15.8699 462.957 26.45 462.957 36.6773 462.957Z" fill="#74D414"/>
<path d="M1373.98 349.933C1373.98 329.174 1373.98 308.798 1373.98 288.039C1373.98 278.044 1375.04 278.813 1365.87 278.813C1357.76 278.813 1349.65 278.428 1341.19 278.813C1336.95 278.813 1335.54 277.275 1335.9 273.046C1335.9 271.893 1335.9 270.739 1335.9 269.202C1335.9 262.282 1335.9 262.282 1342.24 262.282C1367.99 262.282 1393.38 262.282 1419.12 262.282C1425.47 262.282 1425.83 261.513 1425.83 269.202C1425.83 269.586 1425.83 269.971 1425.83 269.971C1425.83 279.197 1426.53 278.813 1418.42 278.813C1411.37 278.813 1404.31 278.813 1397.26 278.813C1387.38 278.813 1388.44 277.659 1388.44 288.808C1388.44 325.329 1388.44 361.851 1388.44 398.372C1388.44 403.754 1388.44 408.752 1388.44 414.134C1388.44 420.67 1388.44 421.054 1382.8 421.054C1371.87 421.054 1373.63 421.823 1373.63 411.443C1373.98 391.068 1373.98 370.308 1373.98 349.933Z" fill="rgb(56, 56, 56)"/>
<path d="M1607.8 341.86C1607.8 318.409 1607.8 294.574 1607.8 271.124C1607.8 261.897 1607.45 263.051 1615.56 262.666C1616.97 262.666 1618.38 262.666 1619.79 262.666C1621.91 262.666 1622.97 263.82 1622.97 266.126C1622.97 268.433 1622.97 271.124 1622.97 273.43C1622.97 312.643 1622.97 351.855 1622.97 391.452C1622.97 392.99 1622.97 394.528 1622.97 396.066C1622.97 404.908 1621.91 405.292 1631.08 405.292C1643.07 405.292 1654.71 405.292 1666.7 405.292C1671.63 405.292 1676.22 405.292 1681.16 405.292C1684.33 405.292 1685.39 406.445 1685.74 409.905C1686.45 421.438 1686.45 421.438 1675.87 421.438C1655.41 421.438 1634.6 421.438 1614.15 421.438C1608.15 421.438 1608.15 421.438 1608.15 414.903C1607.8 390.299 1607.8 366.079 1607.8 341.86Z" fill="black"/>
<path d="M1054.47 341.86C1054.47 366.079 1054.47 390.299 1054.47 414.518C1054.47 421.054 1054.47 421.054 1048.47 421.054C1046.36 421.054 1044.6 421.054 1042.48 421.054C1040.36 421.054 1039.31 419.9 1039.31 417.594C1039.31 415.672 1039.31 413.75 1039.31 412.212C1039.31 365.311 1039.31 318.409 1039.31 271.508C1039.31 269.586 1039.31 267.664 1039.31 266.126C1039.31 263.819 1040.36 263.051 1042.48 262.666C1043.18 262.666 1043.54 262.666 1044.24 262.666C1056.59 262.666 1054.12 261.513 1054.47 273.046C1054.47 296.112 1054.47 319.178 1054.47 341.86Z" fill="black"/>
<path d="M1279.82 341.86C1279.82 318.409 1279.82 294.574 1279.82 271.124C1279.82 261.128 1279.82 262.666 1287.58 262.666C1294.63 262.666 1294.63 262.666 1294.63 270.739C1294.63 318.409 1294.63 365.695 1294.63 413.365C1294.63 416.056 1296.04 419.901 1293.22 420.669C1289.34 421.823 1284.76 421.823 1280.88 420.669C1280.53 420.669 1280.17 419.132 1280.17 418.363C1280.17 416.056 1280.17 414.134 1280.17 411.827C1279.82 388.377 1279.82 365.311 1279.82 341.86Z" fill="black"/>
<path d="M1555.96 522.161C1551.73 523.699 1548.2 523.314 1546.44 518.316C1546.08 517.163 1545.38 516.01 1544.67 515.241C1543.26 512.934 1542.91 509.09 1539.74 509.859C1536.21 510.628 1538.33 514.472 1537.62 516.779C1537.27 517.547 1537.62 518.701 1537.62 519.47C1537.62 522.545 1535.86 522.93 1533.39 522.93C1531.27 522.93 1530.57 521.392 1530.57 519.47C1530.57 509.09 1530.57 498.71 1530.57 488.33C1530.57 485.639 1531.98 484.486 1534.09 484.486C1537.62 484.486 1540.79 484.486 1544.32 485.255C1552.43 487.177 1556.31 495.635 1552.08 502.939C1548.91 508.321 1550.67 511.781 1552.79 516.01C1554.2 517.548 1555.61 519.47 1555.96 522.161Z" fill="#76D517"/>
<path d="M1621.91 503.323C1621.91 495.634 1625.08 489.484 1632.13 485.639C1638.84 482.179 1645.18 482.948 1651.18 487.946C1652.59 489.099 1655.06 490.637 1652.59 492.944C1651.18 494.481 1649.42 496.788 1646.95 494.481C1646.24 493.712 1645.54 493.328 1644.83 492.944C1639.54 490.252 1634.6 491.406 1631.43 496.019C1628.61 500.248 1628.26 506.399 1631.08 510.628C1634.25 515.241 1639.54 516.779 1644.48 514.472C1644.83 514.472 1644.83 514.088 1645.18 514.088C1648 511.396 1651.53 509.859 1653.29 514.472C1654.71 518.316 1650.47 519.854 1648 521.392C1636.37 528.312 1621.91 519.085 1621.91 503.323Z" fill="#77D518"/>
<path d="M1561.95 485.255C1567.24 482.948 1570.07 484.87 1571.48 489.868C1573.59 497.557 1576.06 504.861 1579.24 514.088C1582.41 504.477 1584.88 496.788 1587.35 489.099C1588.05 486.793 1588.4 484.486 1591.58 484.102C1594.75 483.717 1596.52 485.255 1595.46 488.33C1591.93 498.71 1588.4 509.09 1584.88 519.085C1583.82 521.776 1582.06 522.545 1579.59 522.545C1576.77 522.545 1574.65 522.161 1573.59 518.701C1569.71 507.937 1565.83 496.788 1561.95 485.255Z" fill="#78D51A"/>
<path d="M1476.61 523.699C1472.73 523.314 1469.2 522.161 1467.09 518.316C1466.03 516.779 1464.27 514.472 1466.03 512.55C1467.44 511.012 1469.56 511.012 1471.67 512.166C1473.08 512.934 1473.79 514.857 1475.55 515.241C1477.67 515.625 1479.78 515.625 1480.84 513.319C1481.9 510.628 1480.49 509.09 1478.73 508.321C1476.61 507.168 1474.14 506.399 1471.67 504.861C1467.44 502.555 1466.03 498.326 1466.73 493.328C1467.09 488.33 1469.91 485.255 1473.79 484.102C1478.37 482.564 1482.25 484.102 1485.07 487.946C1485.78 489.099 1487.19 490.637 1486.48 492.175C1485.78 494.097 1483.66 494.481 1482.25 494.097C1480.84 493.713 1479.43 492.175 1478.02 491.406C1476.61 490.637 1475.2 491.406 1474.49 492.944C1473.79 494.482 1473.79 496.019 1474.85 497.172C1476.61 499.095 1479.43 499.479 1481.55 500.632C1487.89 503.708 1490.36 507.937 1488.95 514.088C1487.54 519.854 1482.25 524.083 1476.61 523.699Z" fill="#78D519"/>
<path d="M1509.41 522.93C1497.77 522.93 1499.18 524.083 1499.18 511.781C1499.18 504.861 1499.18 498.326 1499.18 491.406C1499.18 484.102 1499.18 484.101 1506.23 484.101C1509.76 484.101 1512.93 484.101 1516.46 484.101C1518.58 484.101 1519.28 485.639 1519.28 487.561C1519.28 489.868 1518.58 491.021 1516.46 491.406C1513.99 491.406 1511.52 491.406 1509.05 491.79C1506.94 491.79 1506.23 493.328 1506.23 495.635C1506.23 497.941 1506.94 499.094 1509.05 499.479C1511.17 499.863 1513.64 499.479 1515.76 499.864C1517.87 500.248 1518.22 501.786 1518.22 503.708C1518.22 505.246 1517.52 506.783 1515.76 506.783C1513.64 506.783 1511.88 507.168 1509.76 507.168C1506.59 507.168 1506.23 509.09 1506.23 512.166C1506.23 514.857 1507.64 516.01 1509.76 516.01C1511.88 516.01 1514.34 516.01 1516.46 516.01C1519.28 516.01 1519.63 517.932 1519.63 520.239C1519.63 522.93 1518.22 523.314 1516.11 523.314C1513.64 522.93 1511.52 522.93 1509.41 522.93Z" fill="#78D519"/>
<path d="M1664.23 502.939C1664.23 501.786 1664.23 500.632 1664.23 499.094C1664.58 494.481 1662.11 487.946 1665.64 485.255C1669.87 482.179 1675.87 484.486 1681.16 484.101C1683.27 484.101 1683.98 485.639 1683.98 487.946C1683.98 490.252 1683.27 491.406 1681.16 491.406C1679.04 491.406 1676.57 491.406 1674.46 491.406C1671.63 491.406 1671.28 493.328 1671.28 495.634C1671.28 497.941 1672.34 499.094 1674.46 499.094C1676.57 499.094 1678.33 499.094 1680.45 499.479C1682.57 499.479 1683.27 501.017 1683.27 502.939C1683.27 505.245 1682.21 506.399 1680.45 506.399C1678.69 506.399 1676.92 506.399 1675.51 506.399C1672.69 506.399 1671.63 507.936 1671.63 511.012C1671.63 514.087 1672.69 515.625 1675.51 515.241C1677.63 515.241 1680.1 515.241 1682.21 515.241C1684.33 515.241 1685.04 516.779 1685.04 519.085C1685.04 521.392 1683.98 522.545 1681.86 522.545C1676.92 522.545 1672.34 522.545 1667.4 522.545C1664.58 522.545 1664.23 520.623 1664.23 518.316C1664.23 513.319 1664.23 507.937 1664.23 502.939Z" fill="#78D518"/>
<path d="M1427.24 484.102C1430.06 484.102 1432.88 484.102 1435.7 484.102C1437.82 484.102 1438.87 485.255 1438.87 487.177C1439.23 489.099 1438.52 491.406 1436.41 491.022C1430.06 490.637 1430.76 494.866 1430.76 499.095C1430.76 505.246 1430.76 511.397 1430.76 517.548C1430.76 520.239 1430.41 522.545 1427.24 522.545C1423.71 522.545 1423 520.239 1423 517.163C1423 510.243 1423 503.708 1423 496.788C1423 493.328 1422.65 490.637 1418.42 491.022C1415.95 491.022 1414.89 489.868 1415.25 487.177C1415.25 484.102 1417.01 483.717 1419.13 483.717C1422.3 484.102 1424.77 484.102 1427.24 484.102Z" fill="#7ED621"/>
<path d="M1405.72 502.939C1405.72 508.321 1405.72 513.319 1405.72 518.701C1405.72 521.776 1404.31 523.314 1401.49 522.93C1399.02 522.93 1397.96 521.392 1397.96 519.085C1397.96 508.706 1397.96 498.326 1397.96 487.946C1397.96 485.255 1399.38 484.101 1401.49 484.101C1404.31 484.101 1405.37 485.639 1405.37 488.33C1405.37 493.328 1405.72 498.326 1405.72 502.939Z" fill="#84D92E"/>
<path d="M1612.39 504.092C1612.39 508.705 1612.39 513.319 1612.39 517.932C1612.39 520.623 1612.39 522.93 1609.21 522.93C1606.04 522.93 1605.69 521.007 1605.69 518.316C1605.69 508.705 1605.69 498.71 1605.69 489.099C1605.69 486.408 1605.69 484.101 1608.86 484.101C1612.74 484.101 1612.39 486.793 1612.39 489.484C1612.39 494.481 1612.39 499.479 1612.39 504.092Z" fill="#79D61C"/>
<path d="M555.448 368.002C555.448 355.315 555.448 342.245 555.448 329.558C555.448 326.098 556.153 323.792 560.033 323.792C575.903 324.56 592.125 322.254 607.995 325.329C624.57 328.789 637.619 337.247 641.851 356.469C646.788 379.919 638.677 401.832 615.401 409.136C610.464 410.674 605.526 412.212 600.589 412.212C587.54 412.212 574.139 412.212 561.091 412.596C557.211 412.596 555.448 411.443 555.801 406.83C555.801 393.759 555.448 380.688 555.448 368.002Z" fill="white"/>
<path d="M555.448 167.71C555.448 157.331 555.448 146.951 555.448 136.571C555.448 133.111 555.801 130.42 560.033 130.42C574.845 130.804 590.009 129.267 604.468 133.496C626.686 139.647 636.914 164.635 626.334 186.932C623.512 193.083 618.575 197.312 612.932 200.003C605.879 203.463 598.473 204.616 590.714 205.001C580.84 205.385 570.965 205.001 561.091 205.385C556.506 205.385 555.448 203.463 555.448 198.85C555.8 188.47 555.448 178.09 555.448 167.71Z" fill="white"/>
<path d="M895.065 160.022C895.065 151.564 895.065 142.722 895.065 134.264C895.065 130.42 896.123 128.498 900.002 128.882C910.582 129.267 920.809 128.498 931.389 130.036C949.022 132.727 958.897 145.029 957.839 162.713C957.134 174.246 952.196 182.319 942.675 187.317C936.679 190.392 930.331 191.545 923.983 191.93C916.224 192.314 908.113 191.93 900.355 192.314C896.475 192.314 895.417 190.776 895.417 186.932C895.417 177.706 895.065 168.864 895.065 160.022Z" fill="white"/>
<path d="M911.287 57.377C916.93 57.377 923.63 56.9927 930.331 59.6838C940.911 63.5281 946.906 71.9858 947.259 83.5189C947.611 94.6675 941.969 103.894 931.742 108.507C926.099 111.198 920.456 111.967 914.461 111.583C908.466 111.198 900.355 114.274 896.475 110.429C892.243 106.585 895.417 97.743 895.065 91.2076C894.712 81.9811 895.065 72.7546 895.065 63.5281C895.065 59.2993 896.122 57.3771 900.354 57.7616C903.528 57.7616 907.055 57.377 911.287 57.377Z" fill="white"/>
<path d="M1593.34 88.901C1593.34 80.0589 1593.34 71.217 1593.34 62.375C1593.34 60.0684 1592.99 57.7617 1596.16 57.7617C1606.39 58.1461 1616.97 56.6084 1627.2 59.6839C1641.3 63.9127 1648.36 74.2923 1648.01 90.0542C1648.01 105.047 1640.95 114.658 1626.85 119.272C1616.97 122.347 1606.74 120.809 1596.52 121.194C1593.34 121.194 1592.99 119.271 1592.99 116.58C1593.34 106.97 1593.34 98.1274 1593.34 88.901Z" fill="white"/>
<path d="M896.476 340.707C896.476 322.254 896.476 303.801 896.476 285.348C896.476 278.813 896.476 278.428 902.471 278.813C914.462 279.197 926.805 278.044 938.796 280.735C981.821 290.73 991.695 331.865 982.173 364.157C976.531 382.61 964.188 394.143 947.612 400.294C940.912 402.985 934.211 404.523 926.805 404.523C917.988 404.523 909.172 404.523 900.708 404.908C897.886 404.908 896.476 403.754 896.828 400.679C896.828 398.757 896.828 396.834 896.828 395.297C896.476 377.228 896.476 359.16 896.476 340.707Z" fill="white"/>
<path d="M1056.23 64.2971C1061.52 75.8302 1081.27 131.573 1082.68 138.109C1080.21 139.262 1077.74 138.878 1075.28 138.878C1060.46 138.878 1045.65 138.878 1029.43 138.878C1038.6 113.889 1047.06 89.6699 1056.23 64.2971Z" fill="white"/>
<path d="M1511.52 138.878C1493.18 138.878 1475.9 138.878 1457.57 138.878C1466.38 113.889 1475.2 90.0543 1484.72 63.5282C1493.89 89.6699 1502.71 113.889 1511.52 138.878Z" fill="white"/>
<path d="M1508.35 287.27C1516.46 309.568 1524.57 332.249 1532.68 355.315C1515.76 355.315 1499.53 355.315 1481.9 355.315C1490.36 332.249 1498.12 309.568 1506.23 287.27C1507.29 286.886 1507.64 287.27 1508.35 287.27Z" fill="white"/>
<path d="M1537.62 496.403C1537.97 494.481 1536.91 491.406 1540.44 491.406C1543.62 491.406 1546.08 492.559 1546.08 496.788C1546.08 499.864 1543.62 502.17 1540.44 502.17C1537.97 501.786 1537.62 501.017 1537.62 496.403Z" fill="white"/>
</svg>
