<svg width="1420" height="652" viewBox="0 0 1420 652" fill="none" xmlns="http://www.w3.org/2000/svg">
<mask id="mask0_3667_8080" style="mask-type:alpha" maskUnits="userSpaceOnUse" x="0" y="0" width="1420" height="652">
<rect width="1420" height="652" rx="25" fill="red"/>
</mask>
<g mask="url(#mask0_3667_8080)">
<path d="M1190.94 137.556C1193.82 142.587 1196.96 147.411 1200.16 152.102C1205.51 150.669 1228.04 143.844 1233.23 141.692C1248.35 135.517 1259.59 129.343 1266.9 123.962C1272.48 119.89 1282.85 111.379 1279.22 105.848C1281.52 103.665 1284.84 100.986 1282.36 97.9142C1281.95 97.4023 1281.61 97.0852 1281.07 96.8405C1282.01 95.4929 1282.35 94.0343 1281.37 92.2925C1278.83 87.579 1270.87 91.5352 1267.35 92.5112C1251.32 97.1397 1234.93 101.123 1218.59 104.315C1204.92 106.955 1190.97 109.144 1177.14 110.738C1181.29 120.065 1186.09 129.042 1190.94 137.556Z" fill="#FFA67D"/>
<path d="M1262.06 110.121C1269.05 106.856 1275.29 102.761 1280.9 97.5701C1281.47 97.0243 1280.59 96.1341 1279.88 96.6187C1274.33 101.676 1268.09 105.771 1261.29 108.964C1260.59 109.448 1261.22 110.545 1262.06 110.121Z" fill="green"/>
<path d="M1266.26 117.21C1271.16 114.279 1275.51 110.776 1279.38 106.565C1279.95 106.02 1278.93 105.068 1278.36 105.614C1274.55 109.691 1270.26 113.061 1265.5 116.052C1264.85 116.403 1265.48 117.5 1266.26 117.21Z" fill="red"/>
<path d="M1340.57 540.881C1338.95 534.163 1332.19 529.463 1326.86 525.897C1319.04 520.708 1284.13 502.178 1278.11 499.426C1268.47 495.022 1260 494.063 1249.64 495.143C1245.24 495.557 1236.6 497.104 1231.31 498.075C1243.82 511.061 1263.48 519.395 1268.96 536.108C1271.27 536.358 1273.72 536.668 1276.24 537.173C1294.87 540.676 1312.94 548.933 1332.11 549.129C1337.39 549.277 1342.2 547.599 1340.57 540.881Z" fill="#E0785E"/>
<path d="M1334.73 548.708C1338.62 543.379 1334.48 537.931 1330.45 533.992C1324.38 528.15 1317.16 523.4 1309.97 519.307C1293.9 510.192 1276.89 502.096 1260.03 494.717C1259.22 494.351 1258.67 495.553 1259.48 495.92C1273.33 502.086 1287.01 508.982 1300.56 515.816C1307 519.08 1313.45 522.673 1319.52 526.739C1324.92 530.499 1339.55 539.927 1333.9 547.684C1333.27 548.364 1334.16 549.254 1334.73 548.708Z" fill="#2B244A"/>
<path d="M1403.59 647.031C1405.79 640.444 1402.48 632.797 1399.32 627.316C1394.49 619.13 1389.63 612.392 1383.89 604.763C1380.85 600.79 1378.34 596.733 1376.59 592.058C1374.91 587.578 1373.88 582.747 1371.88 578.278C1363.29 559.172 1340.13 556.023 1323.71 546.262C1324.15 549.206 1324.64 552.017 1324.87 554.706C1325.44 561.263 1325.48 567.904 1325.91 574.399C1326.26 580.372 1326.27 586.356 1325.76 592.096C1326.16 592.279 1326.69 592.524 1327.09 592.707C1336.26 596.733 1344.22 601.983 1351.45 608.838C1365.22 621.912 1375.89 638.578 1391.88 649.274C1396.47 652.339 1401.39 653.617 1403.59 647.031Z" fill="#F5E3D9"/>
<path d="M1403.59 647.031C1405.92 640.505 1402.75 632.92 1400.24 627.087C1396.57 618.467 1377.22 583.947 1373.6 578.416C1365.5 565.673 1355.56 560.162 1338.52 553.513C1347.76 568.716 1350.47 587.234 1345.95 604.226C1347.84 605.739 1349.68 607.386 1351.52 609.032C1365.29 622.107 1375.97 638.773 1391.96 649.469C1396.47 652.339 1401.39 653.617 1403.59 647.031Z" fill="#E0785E"/>
<path d="M1356.78 599.644C1355.79 603.23 1354.8 606.815 1353.61 610.473C1353.38 611.336 1354.57 611.558 1354.94 610.756C1356.06 607.232 1357.11 603.513 1358.11 599.928C1358.2 599.003 1357.01 598.781 1356.78 599.644Z" fill="#74D414"/>
<path d="M1363.27 606.326C1362.28 609.911 1361.29 613.497 1360.11 617.155C1359.88 618.017 1361.07 618.239 1361.44 617.438C1362.56 613.913 1363.61 610.195 1364.6 606.609C1364.77 605.88 1363.45 605.597 1363.27 606.326Z" fill="#74D414"/>
<path d="M802.671 32.3936C798.891 26.1443 797.469 23.2338 794.2 16.5723C791.456 9.82707 789.162 2.80327 787.586 -4.37675C786.787 -8.29518 785.987 -12.2136 785.517 -16.1434C785.082 -19.0879 785.292 -22.3833 784.199 -25.3052C783.252 -27.8375 780.879 -29.7289 778.322 -29.4437C778.105 -31.8038 778.452 -36.8138 776.152 -38.5104C773.584 -40.3294 771.158 -38.2073 770.68 -35.0341C769.622 -36.9707 767.736 -38.1554 765.907 -35.9223C764.578 -34.4298 764.026 -31.4514 763.562 -29.7255C762.62 -26.6022 761.947 -23.3566 761.468 -20.1834C760.549 -14.6275 760.36 -8.89948 760.829 -3.19402C759.71 -4.997 758.519 -6.99477 757.267 -8.85891C756.014 -10.7231 754.153 -13.0266 751.631 -11.7562C746.452 -9.27641 751.409 2.19368 752.513 5.44397C756.664 18.3228 763.154 30.332 771.497 40.765C775.067 50.3098 779.161 59.7708 783.511 69.0257C789.758 57.8281 794.962 43.2467 802.671 32.3936Z" fill="#FFA67D"/>
<path d="M760.074 -4.02314C761.142 0.0176096 762.209 4.05838 763.276 8.09914C763.568 8.8783 764.737 8.44347 764.58 7.72547C763.512 3.68472 762.445 -0.35602 761.378 -4.39677C761.087 -5.17594 759.917 -4.74114 760.074 -4.02314Z" fill="#2B244A"/>
<path d="M1203.41 107.073C1131.61 110.132 1059.1 122.555 994.605 132.664C992.376 132.938 990.22 133.406 987.991 133.68C987.796 133.753 987.601 133.825 987.479 134.092C959.66 136.89 930.104 135.341 902.978 128.118C875.608 110.448 818.604 52.4292 800.982 29.3594C795.741 33.7485 791.291 38.1762 786.864 43.2607C781.426 49.498 776.328 56.0524 772.191 63.6919C773.819 66.8584 779.471 77.5154 782.934 84.1044C781.952 91.5696 781.7 99.2071 783.019 106.593C785.585 121.171 794.938 132.226 806.01 141.645C812.057 146.83 818.616 151.603 824.602 156.921C831.464 162.801 838.655 168.67 843.725 175.993C855.605 193.21 870.349 207.698 890.92 217.579C897.469 242.213 903.845 269.352 920.606 288.637C924.729 293.428 937.353 298.387 937.353 298.387C937.353 298.387 945.31 305.413 949.776 308.745C950.518 309.246 954.429 308.125 953.747 307.491L953.613 307.429C977.786 298.444 1002.26 290.566 1027.04 283.795C1027.32 284.246 1028.59 284.663 1028.83 284.128C1031.97 277.97 1031.4 271.413 1031.99 264.093C1032.61 255.653 1032.12 247.515 1033.07 239.065C1034.05 229.824 1033.86 220.689 1032.28 211.734C1060.39 211.491 1103.52 211.324 1121.57 202.614C1135.1 196.033 1134.18 188.83 1146.53 180.58C1153.47 176.001 1160.81 173.052 1169.07 171.979C1176.28 171.074 1183.88 171.799 1190.85 169.652C1203.87 165.588 1210.89 157.652 1217.62 148.937C1224.83 145.927 1228.64 143.955 1236.94 140.315C1226.14 123.916 1217.2 115.148 1203.41 107.073Z" fill="#F5E3D9"/>
<path d="M886.968 201.075C887.364 206.586 888.418 212.074 889.922 217.284C890.214 218.063 891.383 217.628 891.226 216.91C889.721 211.701 888.741 206.407 888.284 201.03C888.187 200.179 886.872 200.224 886.968 201.075Z" fill="#74D414"/>
<path d="M922.981 145.976C929.036 144.058 935.091 142.14 941.011 140.161C941.791 139.871 941.415 138.569 940.635 138.858C934.581 140.776 928.526 142.694 922.605 144.674C921.825 144.963 922.201 146.266 922.981 145.976Z" fill="#74D414"/>
<path d="M929.779 131.801C927.302 136.161 924.764 140.654 922.287 145.014C921.787 145.755 922.992 146.305 923.492 145.565C925.969 141.205 928.507 136.711 930.984 132.351C931.423 131.744 930.279 131.06 929.779 131.801Z" fill="#2B244A"/>
<path d="M956.218 154.699C951.073 148.957 946.123 143.143 940.978 137.401C940.43 136.828 939.54 137.713 940.027 138.42C945.172 144.162 950.122 149.976 955.267 155.718C955.948 156.352 956.9 155.333 956.218 154.699Z" fill="#2B244A"/>
<path d="M955.357 139.932C955.278 145.065 955.261 150.063 955.182 155.196C955.145 155.986 956.46 155.941 956.497 155.151C956.576 150.018 956.594 145.019 956.672 139.887C956.71 139.097 955.395 139.142 955.357 139.932Z" fill="#2B244A"/>
<path d="M944.24 127.423C941.259 136.074 938.813 144.971 936.039 153.879C933.741 161.389 931.772 168.888 932.519 176.82C933.229 183.767 935.646 190.524 937.404 197.303C939.527 205.056 940.334 212.854 940.556 220.87C940.828 228.424 940.71 236.122 941.968 243.642C943.227 251.162 946.044 258.102 949.057 264.969C956.248 281.821 963.573 298.734 970.825 315.452C971.117 316.231 972.42 315.858 972.129 315.078C965.022 298.75 958.05 282.482 951.004 266.02C947.846 258.763 944.615 251.311 943.345 243.463C942.086 235.943 942.144 228.378 941.933 220.691C941.746 213.661 941.157 206.447 939.46 199.534C937.689 192.426 935.067 185.414 934.076 178.016C932.989 169.767 934.946 161.94 937.427 154.028C940.141 145.254 942.586 136.358 945.628 127.572C945.873 127.038 944.545 126.754 944.24 127.423Z" fill="#2B244A"/>
<path d="M1324.52 546.628C1296.4 533.784 1268.27 520.611 1242.81 503.006C1221.33 488.026 1202.44 469.867 1188.98 447.246C1176.51 426.367 1168.24 403.37 1155.83 382.357C1149.65 371.784 1137.23 355.77 1123.58 342.428C1112.38 331.501 1085.87 308.408 1038.76 287.536C1038.76 287.536 1034.68 280.179 1031.3 274.113C994.078 290.058 977.811 297.325 937.353 298.387L945.324 314.949C945.651 338.679 947.108 375.523 962.467 407.089C984.351 451.649 1024.49 482.099 1068.11 502.829C1104.15 519.939 1149.99 531.187 1189.73 535.937C1232.34 561.699 1281.87 585.777 1328.45 602.853C1331.66 584.132 1330.24 564.911 1324.52 546.628Z" fill="#F576A6"/>
<path d="M931.852 118.052L928.656 133.551C928.656 133.551 937.231 143.121 957.086 140.4L960.525 124.366L931.852 118.052Z" fill="blue"/>
<path d="M980.116 117.97C984.09 114.94 988.607 105.052 982.601 95.5248C977.154 86.8995 967.029 80.0134 953.593 83.5662C940.156 87.119 936.584 90.3327 929.271 95.7137C923.566 100.053 918.311 105.889 922.468 113.441C927.257 122.089 938.212 126.448 944.618 126.951C951.096 127.649 965.124 129.534 980.116 117.97Z" fill="#FFA67D"/>
<path d="M986.646 116.429C987.658 115.276 988.33 113.807 988.465 112.092C988.627 109.258 987.424 106.932 985.648 105.152C985.77 104.885 986.026 104.679 986.014 104.35C987.223 101.349 983.745 96.2075 981.666 93.3195C983.298 92.9346 984.567 91.5757 984.824 89.5939C985.145 85.7027 980.971 83.1498 977.891 81.7431C972.998 79.3464 960.957 75.9459 957.588 82.967C955.44 87.3156 957.64 91.712 959.181 96.131C956.037 98.4094 952.843 101.15 951.646 104.479C949.838 109.145 953.514 110.663 956.24 113.2C956.24 113.2 956.106 113.138 956.045 113.272C951.914 115.584 950.581 120.628 952.707 124.83C955.113 129.482 960.178 131.15 965.171 130.846C965.305 130.908 968.253 130.477 969.401 127.61C974.916 128.999 980.981 129.185 982.351 123.351C982.915 120.701 982.574 120.384 985.11 117.666C985.622 117.254 986.207 117.036 986.646 116.429Z" fill="#2B244A"/>
<path d="M931.008 122.026L930.224 125.867C933.024 126.823 936.58 126.832 939.443 125.879C940.028 125.662 939.871 124.944 939.408 124.894C936.364 124.472 933.43 123.455 931.008 122.026Z" fill="#2B244A"/>
<path d="M944.93 86.2323C944.93 86.2323 936.162 85.9418 934.663 86.3879C933.104 86.9676 933.163 88.6096 934.035 92.7228C934.981 97.0308 944.93 86.2323 944.93 86.2323Z" fill="#FFA67D"/>
<path d="M942.988 103.593C940.779 108.075 942.551 113.407 946.908 115.559C951.4 117.772 956.736 116.011 958.884 111.662C961.093 107.18 959.321 101.848 954.964 99.6961C950.667 97.4104 945.27 99.3058 942.988 103.593Z" fill="GREEN"/>
<path d="M948.087 84.2812C946.173 85.9911 948.79 87.3479 949.42 90.2199C949.978 92.8971 950.889 94.4442 952.254 93.9369C953.813 93.3572 954.621 90.1727 952.98 86.6778C951.413 83.3777 949.489 82.9834 948.087 84.2812Z" fill="#2B244A"/>
<path d="M953.776 105.13C954.455 107.54 954.233 110.507 951.638 111.583C950.858 111.873 951.234 113.175 952.014 112.885C953.439 112.244 954.513 110.958 955.123 109.622C955.855 108.018 955.468 106.387 955.08 104.757C954.788 103.977 953.485 104.351 953.776 105.13Z" fill="#2B244A"/>
<path d="M942.759 89.9223C943.025 91.8203 944.582 93.0163 946.128 93.8839C946.871 94.3845 947.42 93.1818 946.678 92.6812C945.533 91.9971 944.256 91.2519 943.941 89.8159C943.978 89.0254 942.663 89.0707 942.759 89.9223Z" fill="#2B244A"/>
<path d="M931.258 94.197C930.551 94.6816 929.978 95.2275 929.271 95.7121C928.503 96.3304 927.736 96.9486 926.968 97.5669C929.803 99.5082 931.995 100.025 935.21 99.7169C933.41 97.2797 932.656 96.4507 931.258 94.197Z" fill="white"/>
<path d="M1023.68 393.541C1039.91 416.461 1058.01 438.133 1078.4 457.622C1098.31 476.733 1120.25 493.538 1143.12 508.668C1157.9 518.485 1173.3 527.623 1188.7 536.432C1189.44 536.933 1189.99 535.73 1189.25 535.23C1139.77 507.138 1093.18 474.871 1055.48 431.972C1044.5 419.526 1034.28 406.461 1024.78 392.911C1024.35 392.071 1023.19 392.834 1023.68 393.541Z" fill="#8D84B8"/>
<path d="M947.053 315.415C979.871 317.969 1011.38 306.035 1038.47 288.531C1039.18 288.047 1038.55 286.95 1037.7 287.374C1010.67 304.744 979.495 316.667 946.872 314.04C946.08 314.001 946.128 315.315 947.053 315.415Z" fill="#8D84B8"/>
<path d="M1304.94 538.818C1309.8 556.867 1310.84 576.561 1309.93 595.204C1309.9 595.995 1311.21 595.949 1311.25 595.159C1312.22 576.382 1311.18 556.688 1306.24 538.444C1306.01 537.531 1304.84 537.966 1304.94 538.818Z" fill="#8D84B8"/>
<path d="M783.664 84.2775C790.574 69.5059 801.439 56.7028 812.814 45.2633C813.387 44.7175 812.365 43.7661 811.792 44.3119C800.222 55.8239 789.296 68.7606 782.325 83.6658C782.154 84.3951 783.298 85.0792 783.664 84.2775Z" fill="red"/>
<path d="M1180.84 109.362C1193.35 122.019 1206.92 133.39 1216.3 148.654C1216.78 149.361 1217.88 148.731 1217.46 147.891C1207.95 132.566 1194.3 121 1181.79 108.342C1181.18 107.903 1180.29 108.788 1180.84 109.362Z" fill="#2B244A"/>
<path d="M1394.43 650.434C1400.53 648.054 1399.95 641.169 1398.84 635.814C1396.9 627.66 1393.39 619.758 1389.5 612.328C1380.94 595.984 1371.09 580.013 1360.98 564.577C1360.5 563.87 1359.4 564.499 1359.82 565.34C1368.12 578.01 1375.84 591.227 1383.48 604.249C1387.41 610.888 1391.08 617.733 1393.83 624.806C1396.29 630.772 1402.75 645.676 1393.98 648.937C1393.27 649.422 1393.65 650.724 1394.43 650.434Z" fill="#2B244A"/>
<path d="M1244.42 110.464C1247.71 110.351 1251 110.238 1254.29 110.125C1257.11 109.962 1267.16 109.222 1262.88 114.696C1260.93 117.197 1255.85 118.752 1252.78 119.45C1251.87 119.678 1252.3 120.847 1253.16 120.752C1256.62 119.91 1265.61 117.233 1265.37 112.441C1265.21 109.947 1262.8 108.846 1260.62 108.658C1255.4 108.048 1249.44 109.042 1244.18 109.223C1243.58 109.112 1243.63 110.426 1244.42 110.464Z" fill="#2B244A"/>
<path d="M1032.87 239.138C1033.86 229.897 1033.66 220.763 1032.09 211.807C1029.38 211.703 1026.88 211.526 1024.29 211.154C1021.19 210.866 1016.89 210.356 1017.79 213.351C1019.14 217.842 1021.79 225.84 1022.09 230.499C1022.34 237.396 1021.74 244.388 1024.99 250.721C1026.76 253.948 1029.09 256.63 1032 258.766C1032.29 252.114 1032.12 245.741 1032.87 239.138Z" fill="#2B244A"/>
<path d="M965.304 391.975C958.656 385.34 952.179 378.025 944.849 372.241C937.008 365.947 923.03 368.839 924.053 380.747C924.394 384.15 926.099 387.382 928.315 390.104C933.088 395.718 939.735 399.63 946.042 403.203C950.986 406.095 965.986 414.771 970.759 407.286C973.998 401.502 969.054 395.718 965.304 391.975Z" fill="#4FB096"/>
<path d="M753.613 567.313C746.964 559.968 737.424 554.927 727.884 552.622C724.704 551.902 720.512 551.326 717.91 553.774C715.453 555.935 715.597 559.536 717.043 562.272C719.355 566.449 724.848 567.889 728.896 569.906C735.256 573.074 741.327 577.539 748.265 579.556C751.445 580.42 755.348 580.276 756.649 576.819C757.805 573.074 755.926 569.762 753.613 567.313Z" fill="#FFBE63"/>
<path d="M1071.75 4.20519C1068.17 1.27271 1054.2 -9.2353 1049.75 2.25024C1044.81 15.0798 1065.45 31.4528 1075.83 32.919C1079.29 33.4078 1083.99 31.6972 1084.85 27.4206C1085.72 22.8997 1082.63 18.1345 1080.77 14.9576C1078.55 10.8033 1075.46 7.13767 1071.75 4.20519Z" fill="#444"/>
<path d="M748.003 225.671C746.407 221.122 742.733 217.479 738.916 214.606C734.292 211.195 729.046 208.703 724.579 205.045C722.257 203.109 720.361 200.889 718.753 198.435C717.309 196.325 715.944 194.092 714.14 192.273C710.65 188.779 705.254 187.779 700.942 190.49C697.626 192.515 696.121 196.294 696.478 199.997C697.27 207.936 703.915 213.647 710.336 217.632C717.937 222.39 725.551 227.019 733.133 231.972C734.563 232.901 735.993 233.831 737.422 234.76C738.727 235.612 740.131 236.801 741.672 237.283C743.213 237.765 744.76 237.528 746.051 236.544C749.222 233.98 749.304 229.207 748.003 225.671Z" fill="#F576A6"/>
<path d="M910.468 500.369C913.43 492.212 922.977 490.109 930.627 493.268C942.15 498.133 946.352 510.076 954.021 518.92C961.14 527.102 971.235 528.289 981.379 529.603C999.548 532.033 1016.59 543.22 1027.34 557.729C1029.73 560.886 1031.89 564.572 1032.26 568.517C1032.81 574.435 1029.01 580.436 1023.33 582.35C1018.41 583.969 1012.79 582.649 1008.34 579.851C999.631 574.331 993.857 565.481 986.78 558.158C980.927 552.112 971.924 550.354 965.382 545.16C951.747 534.108 934.199 530.269 918.47 523.972C910.468 520.658 907.246 509.357 910.468 500.369Z" fill="#FFBE63"/>
<path d="M1353.16 158.67C1359.12 149.736 1371.22 150.015 1379.48 156.062C1391.9 165.299 1393.44 180.891 1400.06 193.778C1406.21 205.706 1418 210.102 1429.81 214.665C1450.93 222.928 1468.13 241.388 1476.78 261.989C1478.73 266.488 1480.25 271.554 1479.52 276.404C1478.44 283.679 1472.11 289.775 1464.72 290.406C1458.33 290.906 1451.96 287.667 1447.44 282.996C1438.59 273.799 1434.26 261.462 1427.9 250.579C1422.64 241.589 1412.34 236.829 1406 228.661C1392.86 211.366 1372.9 201.592 1355.84 189.397C1347.2 183.06 1346.64 168.527 1353.16 158.67Z" fill="#EB5D19"/>
<path d="M958.036 515.766C958.979 512.149 962.275 510.868 965.639 512.09C968.725 513.059 971.645 514.995 974.853 516.278C978.715 517.849 982.612 519.045 985.872 521.391C989.907 524.339 995.084 528.831 995.875 534.124C996.345 537.193 995.123 540.558 991.984 541.777C987.372 543.388 981.593 539.672 977.705 537.569C972.388 534.577 967.359 530.931 962.932 526.509C960.396 523.701 956.962 519.977 958.036 515.766Z" fill="#FFBE63"/>
<path d="M1363.11 196.402C1359.04 206.537 1366.83 211.778 1375.39 212.936C1378.24 213.322 1382.11 211.971 1382.82 208.593C1384.89 198.197 1368.65 182.684 1363.11 196.402Z" fill="black"/>
<path d="M1324.51 546.628C1296.4 533.784 1268.27 520.611 1242.81 503.006C1221.33 488.026 1202.44 469.867 1188.98 447.246C1176.51 426.367 1168.24 403.37 1155.83 382.357C1149.65 371.784 1137.22 355.77 1123.57 342.428C1112.38 331.501 1085.87 308.408 1038.76 287.536C1038.76 287.536 1034.68 280.179 1031.3 274.113C994.077 290.058 977.811 297.325 937.353 298.387L945.323 314.949C945.65 338.679 947.108 375.523 962.466 407.089C984.351 451.649 1024.49 482.099 1068.11 502.829C1104.15 519.939 1149.99 531.187 1189.73 535.937C1232.34 561.699 1281.87 585.777 1328.45 602.853C1331.66 584.132 1330.24 564.911 1324.51 546.628Z" fill="#587EE0"/>
<path d="M931.852 118.052L928.656 133.551C928.656 133.551 937.231 143.121 957.085 140.4L960.525 124.366L931.852 118.052Z" fill="#FFA67D"/>
<path d="M980.116 117.97C984.089 114.94 988.606 105.052 982.6 95.5248C977.154 86.8995 967.029 80.0134 953.592 83.5662C940.155 87.119 936.583 90.3327 929.27 95.7137C923.566 100.053 918.311 105.889 922.467 113.441C927.256 122.089 938.212 126.448 944.617 126.951C951.096 127.649 965.123 129.534 980.116 117.97Z" fill="#FFA67D"/>
<path d="M986.646 116.429C987.658 115.276 988.329 113.807 988.465 112.092C988.627 109.258 987.423 106.932 985.647 105.152C985.769 104.885 986.025 104.679 986.014 104.35C987.223 101.349 983.745 96.2075 981.666 93.3195C983.298 92.9346 984.566 91.5757 984.824 89.5939C985.145 85.7027 980.971 83.1498 977.891 81.7431C972.998 79.3464 960.957 75.9459 957.588 82.967C955.44 87.3156 957.639 91.712 959.181 96.131C956.037 98.4094 952.843 101.15 951.646 104.479C949.838 109.145 953.514 110.663 956.239 113.2C956.239 113.2 956.106 113.138 956.045 113.272C951.913 115.584 950.58 120.628 952.707 124.83C955.113 129.482 960.178 131.15 965.171 130.846C965.305 130.908 968.253 130.477 969.401 127.61C974.916 128.999 980.981 129.185 982.351 123.351C982.914 120.701 982.574 120.384 985.11 117.666C985.622 117.254 986.207 117.036 986.646 116.429Z" fill="#2B244A"/>
<path d="M931.007 122.026L930.224 125.867C933.024 126.823 936.58 126.832 939.443 125.879C940.028 125.662 939.87 124.944 939.407 124.894C936.363 124.472 933.429 123.455 931.007 122.026Z" fill="#2B244A"/>
<path d="M944.93 86.2323C944.93 86.2323 936.161 85.9418 934.663 86.3879C933.104 86.9676 933.163 88.6096 934.035 92.7228C934.98 97.0308 944.93 86.2323 944.93 86.2323Z" fill="#FFA67D"/>
<path d="M942.987 103.593C940.778 108.075 942.55 113.407 946.908 115.559C951.399 117.772 956.735 116.011 958.884 111.662C961.093 107.18 959.321 101.848 954.963 99.6961C950.667 97.4104 945.269 99.3058 942.987 103.593Z" fill="#FFA67D"/>
<path d="M948.087 84.2812C946.173 85.9911 948.79 87.3479 949.42 90.2199C949.977 92.8971 950.889 94.4442 952.253 93.9369C953.813 93.3572 954.62 90.1727 952.98 86.6778C951.412 83.3777 949.489 82.9834 948.087 84.2812Z" fill="#2B244A"/>
<path d="M953.776 105.13C954.455 107.54 954.233 110.507 951.638 111.583C950.858 111.873 951.234 113.175 952.014 112.885C953.439 112.244 954.512 110.958 955.123 109.622C955.855 108.018 955.467 106.387 955.079 104.757C954.788 103.977 953.484 104.351 953.776 105.13Z" fill="#2B244A"/>
<path d="M942.759 89.9233C943.025 91.8213 944.582 93.0173 946.128 93.8849C946.87 94.3855 947.42 93.1828 946.677 92.6822C945.533 91.9981 944.255 91.2529 943.94 89.8169C943.978 89.0264 942.662 89.0716 942.759 89.9233Z" fill="black"/>
<path d="M931.258 94.198C930.551 94.6826 929.978 95.2284 929.271 95.7131C928.503 96.3314 927.735 96.9496 926.967 97.5679C929.803 99.5091 931.994 100.026 935.21 99.7179C933.41 97.2807 932.656 96.4517 931.258 94.198Z" fill="#74D414"/>
<path d="M1023.68 393.541C1039.91 416.461 1058.01 438.133 1078.4 457.622C1098.31 476.733 1120.25 493.538 1143.12 508.668C1157.89 518.485 1173.3 527.623 1188.7 536.432C1189.44 536.933 1189.99 535.73 1189.25 535.23C1139.77 507.138 1093.18 474.871 1055.48 431.972C1044.5 419.526 1034.28 406.461 1024.78 392.911C1024.35 392.071 1023.19 392.834 1023.68 393.541Z" fill="#2B244A"/>
<path d="M947.053 315.415C979.871 317.969 1011.38 306.035 1038.47 288.531C1039.18 288.047 1038.54 286.95 1037.7 287.374C1010.67 304.744 979.495 316.667 946.871 314.04C946.08 314.001 946.127 315.315 947.053 315.415Z" fill="#74D414"/>
<path d="M1304.94 538.818C1309.8 556.867 1310.84 576.561 1309.93 595.204C1309.9 595.995 1311.21 595.949 1311.25 595.159C1312.22 576.382 1311.18 556.688 1306.24 538.444C1306.01 537.531 1304.84 537.966 1304.94 538.818Z" fill="BLACK"/>
<path d="M783.664 84.2775C790.573 69.5059 801.438 56.7028 812.814 45.2633C813.387 44.7175 812.365 43.7661 811.792 44.3119C800.221 55.8239 789.295 68.7606 782.325 83.6658C782.154 84.3951 783.298 85.0792 783.664 84.2775Z" fill="#74D414"/>
<path d="M1180.84 109.362C1193.35 122.019 1206.92 133.39 1216.3 148.654C1216.78 149.361 1217.88 148.731 1217.45 147.891C1207.95 132.566 1194.3 121 1181.79 108.342C1181.18 107.903 1180.29 108.788 1180.84 109.362Z" fill="#74D414"/>
<path d="M1394.43 650.434C1400.53 648.054 1399.95 641.169 1398.84 635.814C1396.9 627.66 1393.39 619.758 1389.5 612.328C1380.94 595.984 1371.09 580.013 1360.98 564.577C1360.5 563.87 1359.4 564.499 1359.82 565.34C1368.12 578.01 1375.83 591.227 1383.48 604.249C1387.41 610.888 1391.08 617.733 1393.83 624.806C1396.29 630.772 1402.75 645.676 1393.98 648.937C1393.27 649.422 1393.65 650.724 1394.43 650.434Z" fill="#2B244A"/>
<path d="M1244.42 110.465C1247.71 110.352 1251 110.239 1254.29 110.126C1257.11 109.963 1267.16 109.223 1262.88 114.697C1260.93 117.198 1255.85 118.753 1252.78 119.451C1251.87 119.679 1252.3 120.848 1253.16 120.753C1256.62 119.911 1265.61 117.234 1265.37 112.442C1265.21 109.948 1262.8 108.847 1260.62 108.659C1255.4 108.049 1249.44 109.043 1244.18 109.224C1243.58 109.113 1243.63 110.426 1244.42 110.465Z" fill="#2B244A"/>
<path d="M1032.87 239.138C1033.86 229.897 1033.66 220.763 1032.09 211.807C1029.38 211.703 1026.88 211.526 1024.29 211.154C1021.19 210.866 1016.89 210.356 1017.79 213.351C1019.14 217.842 1021.79 225.84 1022.09 230.499C1022.34 237.396 1021.74 244.388 1024.99 250.721C1026.76 253.948 1029.09 256.63 1032 258.766C1032.29 252.114 1032.12 245.741 1032.87 239.138Z" fill="#2B244A"/>
<path d="M35.886 103.421C34.2405 93.2176 21.2464 92.8756 13.6429 90.3675C-2.18821 85.1804 -9.50798 62.5508 -27.4953 63.0068C-29.992 63.0638 -32.9426 63.8048 -34.3044 66.1419C-37.5955 71.671 -28.3465 76.6302 -24.5447 78.6252C-10.8131 85.8074 -2.13145 96.6947 9.89795 106.043C14.7211 109.805 20.5655 113.111 26.8639 112.997C32.141 112.826 36.7939 109.235 35.886 103.421Z" fill="#FFBE63"/>
<path d="M293.5 522.287C285.826 516.96 269.348 511.028 265.71 524.481C261.116 541.207 301.942 562.374 312.686 550.565C320.495 541.679 299.107 526.122 293.5 522.287Z" fill="#4444"/>
<path d="M445.863 254.179C442.704 262.02 448.75 266.075 455.382 266.971C457.593 267.269 460.593 266.224 461.146 263.611C462.755 255.568 450.161 243.566 445.863 254.179Z" fill="blue"/>
</g>
</svg>
