<svg width="1420" height="652" viewBox="0 0 1420 652" fill="none" xmlns="http://www.w3.org/2000/svg">
<mask id="mask0_3669_1748" style="mask-type:alpha" maskUnits="userSpaceOnUse" x="0" y="0" width="1420" height="652">
<rect width="1420" height="652" rx="25" fill="#373349"/>
</mask>
<g mask="url(#mask0_3669_1748)">
<path d="M1005.74 76.5412C1013.78 68.4824 1030.64 69.2963 1040.14 71.324C1062.36 76.2173 1080.61 91.1651 1100.85 100.82C1112.59 106.413 1124.82 109.417 1137.8 110.108C1150.77 110.8 1163.82 109.896 1176.95 110.542C1188.66 111.07 1200.36 112.824 1211.06 117.837C1221.71 122.689 1231.02 130.198 1238.45 139.114C1254.73 158.823 1261.18 185.872 1256.09 217.249C1255.65 217.549 1255.25 218.011 1254.7 218.519L1256.27 219.123C1256.27 219.123 1258.19 264.088 1227.74 269.057C1197.3 274.027 1166.15 241.387 1141.2 207.162C1135.18 198.895 1135.76 194.178 1139.93 191.595C1125.9 185.951 1112.03 180.262 1098.05 174.781C1081.62 168.07 1063.86 162.259 1049.75 151.388C1033.42 138.872 1027.43 120.267 1023.72 101.018C1015.52 96.1703 1005.74 76.5412 1005.74 76.5412Z" fill="#2B244A"/>
<path d="M722.233 159.32C723.81 156.246 729.363 154.844 732.349 153.646C736.468 152.127 740.888 151.047 745.237 150.337C743.112 149.015 740.986 147.693 738.976 146.164C735.927 144.054 731.999 141.318 730.061 138.193C727.316 134.071 732.361 132.114 735.737 132.905C740.06 133.953 744.497 136.019 748.635 137.645C753.304 139.295 757.973 140.944 762.689 142.756C770.085 145.382 777.483 148.007 784.763 150.841C837.32 160.248 890.596 167.875 944.054 163.197C945.234 163.037 945.254 164.957 944.028 164.955C942.686 165.161 941.461 165.159 940.073 165.203C946.954 186.354 958.186 205.569 973.008 222.015C973.702 221.993 974.188 221.855 974.882 221.833C976.061 221.673 976.035 223.431 974.855 223.591C974.532 223.683 974.162 223.613 973.838 223.705C973.652 224.283 972.842 224.512 972.334 223.957L972.288 223.795C943.326 226.592 882.833 219.439 854.673 212.732C824.664 205.675 772.545 183.016 759.903 177.329C754.168 176.857 748.619 175.807 743.673 173.186C740.018 173.874 736.432 174.191 732.709 174.023C730.743 173.882 728.2 173.554 727.278 171.54C726.402 169.688 727.33 168.024 728.766 166.917C730.317 165.601 732.331 164.679 734.183 163.803C727.798 164.741 719.587 164.797 722.233 159.32Z" fill="#FFA67D"/>
<path d="M1150.16 246.105C1150.4 237.108 1149.19 228.525 1147.73 219.665C1146.28 211.498 1144.75 203.007 1145.18 194.658C1145.32 190.241 1145.54 181.776 1150.98 180.582C1156.58 179.343 1163.16 185.876 1166.19 189.743C1170.02 194.606 1172.57 200.532 1173.42 206.593C1174.06 211.312 1172.9 215.843 1172.68 220.631C1172.58 226.436 1175.72 230.095 1177.56 235.349C1178.92 239.514 1178.56 243.815 1176.85 247.629C1176.28 254.266 1175.16 261.411 1169.53 265.634C1165.34 268.75 1159.95 268.88 1156 265.45C1150.25 260.607 1150.17 252.928 1150.16 246.105Z" fill="#2B244A"/>
<path d="M1121.4 224.34C1127.29 228.444 1133.57 232.085 1139.88 235.195C1136.93 218.005 1138.04 200.36 1143.48 183.762C1143.79 182.976 1145.32 180.966 1145.5 181.614C1145.66 181.568 1153 175.983 1153.21 176.099C1201.31 193.247 1320.51 240.092 1340.85 250.071C1351.22 255.176 1357.81 258.032 1368.12 263.507C1373.27 266.244 1378.26 269.028 1383.25 271.812C1385.96 273.319 1389.77 275.037 1389.56 278.599C1389.32 283.918 1355.79 280.486 1344.36 278.478C1345.08 279.15 1350.18 284.178 1350.74 284.896C1352.26 286.563 1354.99 288.765 1355.19 291.333C1355.48 296.676 1348.62 294.074 1346.33 292.798C1336.6 287.509 1329.72 282.988 1321.24 275.943C1293.21 272.173 1265.21 267.872 1237.35 262.831C1210.76 257.953 1183.61 253.584 1158 244.753C1152.59 242.963 1147.25 240.804 1142.19 238.39C1142.33 238.876 1142.31 239.408 1142.44 239.894C1142.77 241.028 1140.98 241.534 1140.66 240.4C1140.39 239.428 1140.27 238.41 1140 237.438C1133.11 234.143 1126.41 230.269 1120.1 225.934C1119.55 225.216 1120.52 223.714 1121.4 224.34Z" fill="#FFA67D"/>
<path d="M931.656 163.916C931.61 163.754 931.61 163.754 931.564 163.592L931.518 163.43C931.588 163.06 931.866 162.806 932.352 162.668C951.715 159.971 970.756 156.139 989.729 151.452C998.73 149.246 1007.59 146.555 1016.5 144.025C1017.96 143.611 1021.31 142.483 1021.64 142.391C1044.07 133.223 1067.09 139.112 1089.09 148.792C1110.47 158.125 1127.26 164.212 1153.16 175.935C1148.19 177.522 1145.21 190.446 1145.01 194.702C1144.58 203.051 1146.12 211.541 1147.56 219.708C1149.19 228.523 1150.24 237.152 1150 246.148C1149.8 252.855 1150.04 260.488 1155.63 265.378C1157.89 267.185 1160.41 268.045 1162.98 267.841C1140.31 274.28 1126.87 243.613 1106.64 239.555C1107.17 242.031 1107.53 244.552 1107.85 246.912C1108.7 254.199 1108.57 261.762 1105.97 268.627C1104.76 271.77 1103.25 274.474 1101 277.038C1097.3 281.241 1091.32 284.863 1092.42 291.202C1092.68 291.48 1092.82 291.966 1092.42 292.427C1084.22 300.532 1076.48 309.031 1069.21 317.924C1063.23 325.223 1056.81 330.37 1047.07 331.21C1046.38 331.232 1046.03 330.63 1046.38 330.006C1036.79 327.654 1028.31 321.835 1022.82 313.592C1015.13 301.946 1015.87 287.908 1013.86 274.652C1011.8 261.234 1003.79 250.905 997.866 239.285C993.745 242.031 989.393 243.966 984.35 244.698C984.026 244.79 983.818 244.674 983.61 244.558C983.17 244.858 982.43 244.718 982.084 244.116C978.837 235.762 971.56 230.476 964.537 225.469C958.6 221.204 952.941 216.684 948.625 210.733C938.841 197.233 935.075 180.274 931.656 163.916Z" fill="#F5E3D9"/>
<path d="M1362.68 264.7C1362.68 264.7 1381.28 275.346 1390.85 283.133C1393.78 285.451 1390.6 293.356 1371.9 284.837C1353.2 276.318 1353.16 276.156 1353.16 276.156L1362.68 264.7Z" fill="#FFA67D"/>
<path d="M1357.06 265.244C1357.06 265.244 1372.09 280.58 1379.15 290.653C1381.25 293.732 1379.32 302.333 1362.48 290.487C1344.76 278.014 1335.21 272.147 1335.21 272.147L1357.06 265.244Z" fill="#FFA67D"/>
<path d="M1376.34 286.902C1369.66 280.045 1363.15 273.142 1356.64 266.239C1356.09 265.521 1357.04 264.551 1357.59 265.269C1364.1 272.172 1370.66 279.237 1377.29 285.932C1378 286.604 1377.05 287.574 1376.34 286.902Z" fill="#2B244A"/>
<path d="M1386.06 280.466C1377.35 273.836 1368.41 267.623 1359.08 261.872C1358.41 261.362 1358.99 260.322 1359.77 260.624C1369.11 266.376 1378.26 272.705 1386.97 279.334C1387.68 280.006 1386.73 280.975 1386.06 280.466Z" fill="#2B244A"/>
<path d="M758.451 159.888C753.206 156.826 748.122 153.719 743.155 150.403C742.485 149.893 743.019 148.691 743.851 149.155C748.819 152.471 754.064 155.532 759.147 158.64C759.979 159.104 759.283 160.352 758.451 159.888Z" fill="#2B244A"/>
<path d="M748.938 163.989C744.127 164.305 739.153 164.667 734.342 164.982C733.486 165.05 733.442 163.663 734.298 163.595C739.109 163.279 744.083 162.917 748.894 162.601C749.75 162.533 749.794 163.921 748.938 163.989Z" fill="#2B244A"/>
<path d="M764.69 163.367C760.48 163.337 756.363 163.63 752.245 163.924C750.372 164.106 748.406 163.964 746.416 164.354C744.427 164.744 743.131 165.112 742.203 166.776C740.929 167.838 741.043 168.856 742.221 169.922C742.543 171.055 743.143 171.935 744.183 172.515C744.852 173.025 743.903 173.995 743.233 173.485C739.421 170.541 738.736 165.66 743.619 163.748C746.118 162.689 748.94 162.763 751.67 162.513C755.995 162.335 760.436 161.949 764.808 161.933C765.547 162.073 765.546 163.299 764.69 163.367Z" fill="#2B244A"/>
<path d="M1104.1 506.157C1105.3 506.691 1106.34 507.271 1107.59 507.967C1104.2 501.578 1102.85 493.735 1101.82 487.026C1098.91 468.773 1095.89 450.727 1092.98 432.474C1091.54 423.081 1089.93 413.735 1088.49 404.342C1087.72 399.137 1086.38 393.214 1089 388.269C1094.6 377.754 1109.14 382.727 1117.66 376.982C1116.36 374.899 1115.03 372.653 1113.74 370.569C1113.09 369.527 1114.62 368.744 1115.22 369.623L1118.93 375.92C1119.21 375.666 1119.49 375.413 1119.76 375.159C1120.55 374.235 1121.82 375.624 1120.99 376.386C1120.59 376.848 1120.32 377.102 1119.88 377.402L1173.92 466.027C1231.43 486.105 1278.22 528.83 1327.85 563.049C1339.63 571.256 1351.81 579.001 1364.45 585.914C1380.31 586.31 1396.59 586.938 1411.53 592.675C1426.46 598.412 1432.23 606.401 1445.67 619.213C1450.72 624.079 1475.92 649.307 1479.58 656.668C1481.29 660.209 1483.38 664.515 1481.51 668.374C1477.35 676.555 1466.63 673.299 1460.08 670.606C1444.6 664.151 1429.32 657.812 1413.83 651.357C1398.56 645.018 1382.89 639.14 1367.75 632.061C1339.04 618.507 1309.53 606.409 1280.59 593.271C1261.69 584.636 1242.74 575.839 1223.9 566.835C1186.69 549.219 1149.67 531.026 1113.04 512.371C1115.53 514.988 1118.91 517.006 1123.3 517.684C1124.41 517.894 1124.02 519.581 1122.91 519.372C1116.82 518.298 1112.55 514.96 1109.55 510.561C1107.52 509.563 1105.48 508.565 1103.61 507.521C1102.13 507.241 1103.06 505.578 1104.1 506.157Z" fill="#FFA67D"/>
<path d="M1161.93 503.916C1165.22 498.255 1169.09 492.779 1172.85 487.512C1176.44 482.291 1180.03 477.07 1184.76 472.752C1185.31 472.244 1186.03 471.69 1186.75 471.136C1204.43 478.543 1221.28 487.938 1237.38 498.419C1217.08 511.361 1201.52 531.18 1183.92 548.081C1172.76 542.674 1161.59 537.267 1150.55 531.652C1152.65 521.779 1156.92 512.164 1161.93 503.916Z" fill="#2B244A"/>
<path d="M1046.19 575.288C1041.71 557.657 1039.01 539.52 1036.68 521.452C1034.03 502.251 1032.19 482.82 1031.36 463.275C1029.58 421.247 1030.57 381.583 1039.52 340.359C1043.71 336.017 1097 292.53 1101.82 289.762C1136.4 331.404 1152.26 387.286 1145.84 441.096C1144.17 454.346 1141.24 467.432 1136.99 480.192C1163.01 460.899 1187.33 439.29 1209.46 415.504C1209.72 414.556 1209.97 413.608 1210.44 412.776C1213.18 406.397 1218.76 402.012 1224.66 398.76C1232.14 394.887 1240.26 392.055 1248.13 388.946C1257.41 385.26 1266.85 381.529 1276.13 377.843C1280.53 376.07 1284.93 374.296 1289.37 372.684C1291.87 371.624 1295.3 370.127 1298.23 371.218C1304.52 373.634 1303.68 380.525 1299.92 384.566C1289.33 395.975 1250.35 430.674 1241.83 438.87C1220.01 472.371 1208 491.711 1189.19 518.579C1178.48 533.872 1166.56 554.761 1154.3 568.919C1142.44 582.615 1129.95 597.189 1114.18 606.392C1101.43 613.865 1085.39 617.192 1071.32 611.387C1056.5 605.442 1049.84 590.004 1046.19 575.288Z" fill="#FFA67D"/>
<path d="M1042.93 547.158C1053.51 522.798 1080.75 497.909 1096.96 476.68C1104.6 466.632 1113.38 457.487 1123.48 449.894C1133.86 442.047 1145.73 436.4 1157.53 431.123C1162.33 428.887 1167.33 426.768 1172.12 424.532C1172.9 428.511 1181.92 437.5 1175.13 448.707C1168.29 459.751 1132.6 500.515 1100.14 525.487C1088.09 534.858 1060.39 547.626 1044.7 552.781C1043.93 553.173 1042.51 548.152 1042.93 547.158Z" fill="#2B244A"/>
<path d="M1197.04 428.48C1201.28 424.301 1205.31 420.005 1209.34 415.71C1209.6 414.762 1210.02 413.768 1210.32 412.982C1213.06 406.603 1218.64 402.218 1224.54 398.966C1232.02 395.093 1240.14 392.261 1248.01 389.152C1257.29 385.466 1266.74 381.735 1276.02 378.05C1280.41 376.276 1284.81 374.502 1289.26 372.89C1291.75 371.83 1295.18 370.333 1297.95 371.471C1304.24 373.886 1303.4 380.777 1299.64 384.819C1289.06 396.227 1250.07 430.926 1241.55 439.123C1239.95 441.502 1238.51 443.836 1237.03 446.008C1233.17 442.902 1231.1 438.065 1231.75 432.977C1220.54 429.86 1208.72 428.314 1197.04 428.48Z" fill="#F5E3D9"/>
<path d="M1089.93 515.432C1101.13 500.001 1113.78 486.607 1130.05 476.734C1147.09 466.47 1165.82 459.053 1181.77 446.821C1198 434.334 1210.91 417.541 1216.13 397.682C1209.85 392.814 1203.84 387.693 1198.11 382.318C1185.43 370.34 1174.47 357 1163.51 343.66C1143.82 319.319 1127.91 290.405 1096.93 281.173C1081.71 297.222 1054.11 314.686 1034.92 325.386C1016.93 380.38 1002.81 458.255 1012.89 558.488C1053.55 554.993 1068.72 544.91 1089.93 515.432Z" fill="#C7513C"/>
<path d="M1097.14 281.288C1104.02 283.358 1110.13 286.351 1115.72 290.015C1108.25 299.485 1096.54 306.312 1085.41 310.874C1070.69 316.979 1055.05 321.07 1039.34 323.08C1058.16 312.309 1083.14 296.114 1097.14 281.288Z" fill="#2B244A"/>
<path d="M1117.73 330.4C1118.43 329.152 1120.58 328.716 1124.37 329.74C1140.58 334.415 1153.83 346.579 1168.46 354.328C1170.49 355.326 1172.53 356.324 1174.84 357.068C1178.83 361.885 1182.94 366.495 1187.21 371.058C1177.48 369.446 1168.07 368.968 1157.92 364.673C1145.79 359.542 1132.96 353.206 1123.59 343.616C1120.21 340.372 1115.95 333.357 1117.73 330.4Z" fill="#2B244A"/>
<path d="M1371.21 606.048C1370.74 598.831 1368.28 592.004 1364.28 585.961C1380.15 586.357 1396.43 586.985 1411.2 592.768C1426.13 598.505 1431.9 606.494 1445.34 619.306C1450.4 624.171 1475.59 649.4 1479.26 656.761C1480.96 660.302 1483.06 664.608 1481.18 668.467C1477.03 676.648 1466.3 673.392 1459.76 670.699C1444.27 664.244 1429 657.904 1413.51 651.449C1398.23 645.11 1382.56 639.233 1367.42 632.154C1363.98 630.506 1360.54 628.859 1356.98 627.419C1357.73 618.978 1361.44 613.549 1371.21 606.048Z" fill="#F5E3D9"/>
<path d="M1471.09 672.381C1478.55 664.137 1465.8 652.528 1460.75 646.437C1455.44 640.068 1450.01 633.907 1444.31 628C1432.56 615.584 1420.13 603.883 1407.2 592.853C1406.53 592.343 1407.48 591.373 1408.15 591.883C1423.65 605.161 1438.47 619.155 1452.03 634.211C1458.37 641.16 1464.45 648.363 1470.12 656.028C1474.25 661.331 1477.44 667.604 1472.27 673.447C1471.5 673.839 1470.53 672.889 1471.09 672.381Z" fill="#2B244A"/>
<path d="M1302.13 376.938C1271.7 388.73 1240.97 400.083 1210.67 412.361C1209.91 412.753 1209.54 411.457 1210.3 411.065C1240.55 398.625 1271.28 387.272 1301.76 375.642C1302.57 375.412 1302.94 376.708 1302.13 376.938Z" fill="#2B244A"/>
<path d="M1268.44 413.633C1263.62 407.126 1251.04 417.699 1246.41 421.114C1241.34 424.83 1236.89 428.893 1232.33 433.164C1231.61 433.718 1230.69 432.93 1231.36 432.215C1237.54 426.257 1244.03 420.74 1251.28 416.057C1256.16 412.919 1264.61 406.318 1269.48 412.987C1270.04 413.705 1269 414.351 1268.44 413.633Z" fill="#2B244A"/>
<path d="M1395.51 642.909C1399.33 640.949 1400.52 635.886 1400.06 631.815C1399.54 626.887 1395.22 623.388 1391.5 620.768C1384.68 615.877 1377.52 611.61 1370.63 607.088C1369.96 606.578 1370.5 605.376 1371.33 605.84C1376.5 609.272 1381.8 612.495 1386.97 615.927C1391.06 618.617 1395.68 621.33 1398.71 625.198C1402.84 630.501 1403.03 640.423 1396.32 643.905C1395.44 644.505 1394.74 643.301 1395.51 642.909Z" fill="#2B244A"/>
<path d="M1417.04 601.612C1404.92 602.078 1393.57 597.249 1385.44 588.354C1384.89 587.636 1385.84 586.666 1386.39 587.384C1394.31 596.163 1405.24 600.76 1416.99 600.224C1417.9 600.318 1417.94 601.706 1417.04 601.612Z" fill="#2B244A"/>
<path d="M1282.2 400.45C1277.79 396.626 1271.88 403.555 1266.75 401.511C1263.19 400.072 1261.28 396.414 1260.1 392.897C1259.87 392.087 1261.17 391.719 1261.4 392.529C1262.25 394.912 1263.47 397.366 1265.53 399.058C1268.72 401.653 1271.93 400.04 1275.24 398.75C1277.9 397.644 1280.8 397.348 1283.11 399.318C1283.82 399.99 1282.87 400.96 1282.2 400.45Z" fill="#2B244A"/>
<path d="M1067.97 236.533C1067.25 226.586 1084.68 231.264 1089.58 232.498C1095.64 234.103 1101.44 236.657 1106.89 239.835C1107.42 242.31 1107.74 244.67 1108.11 247.191C1108.31 248.533 1108.36 249.921 1108.52 251.101C1102.02 249.795 1094.8 250.269 1088.28 249.495C1081.35 248.489 1068.54 245.3 1067.97 236.533Z" fill="#2B244A"/>
<path d="M986.132 244.193C984.874 235.449 984.358 225.618 986.454 216.971C986.896 215.446 987.569 213.504 989.627 213.97C991.685 214.436 992.051 216.957 992.187 218.669C993.355 225.864 995.17 232.875 997.912 239.448C994.23 241.894 990.365 243.692 986.062 244.563C986.178 244.355 986.132 244.193 986.132 244.193Z" fill="#2B244A"/>
<path d="M1007 126.595L1015.9 144.372L1044.34 137.873L1029 109.146L1007 126.595Z" fill="#FFA67D"/>
<path d="M1044.34 137.873C1044.34 137.873 1035.38 139.015 1025.23 152.575C1018.25 161.907 1011.36 191.871 1011.36 191.871C1011.36 191.871 996.994 164.093 1015.74 144.418C1026.14 133.587 1044.34 137.873 1044.34 137.873Z" fill="#FFA67D"/>
<path d="M1042.15 90.7086C1042.8 85.6213 1038.96 75.1608 1027.6 72.7831C1017.36 70.6154 1006.49 71.7773 999.484 84.0935C992.479 96.4097 990.665 102.351 989.447 111.623C988.533 118.884 988.913 127.003 997.444 129.307C1007.13 131.982 1018.22 127.259 1023.15 123.058C1028.08 118.856 1039.73 109.948 1042.15 90.7086Z" fill="#FFA67D"/>
<path d="M1005.74 76.542C1012.74 70.3549 1022.24 69.9309 1029.9 71.6087C1041.29 74.1483 1047.52 88.6602 1048.57 93.6115C1052.31 113.555 1044.54 137.989 1044.54 137.989C1044.54 137.989 1035.04 138.413 1031.29 136.325C1021.31 130.758 1020.38 120.696 1021.65 109.133C1013.1 100.007 1007.64 88.7802 1005.74 76.542Z" fill="#2B244A"/>
<path d="M1027.85 106.322C1029.23 111.181 1026.28 116.218 1021.43 117.598C1016.57 118.978 1011.53 116.032 1010.15 111.173C1008.77 106.314 1011.71 101.277 1016.57 99.8967C1021.48 98.6789 1026.47 101.462 1027.85 106.322Z" fill="#FFA67D"/>
<path d="M997.117 89.3184C997.117 89.3184 989.546 94.0936 988.734 95.5494C987.714 96.8892 988.822 98.325 991.94 101.291C995.057 104.256 997.117 89.3184 997.117 89.3184Z" fill="#FFA67D"/>
<path d="M1015.54 126.446C1014.86 129.614 1013.35 132.317 1011.06 134.719L1008.52 129.488C1010.7 128.52 1012.78 127.228 1014.66 125.82C1014.94 125.566 1015.61 126.076 1015.54 126.446Z" fill="#2B244A"/>
<path d="M1021.39 111.305C1023.43 108.626 1022.09 105.154 1018.88 104.316C1018.09 104.014 1018.42 102.697 1019.21 102.999C1023.37 104.092 1024.86 108.744 1022.36 112.255C1021.85 112.925 1020.88 111.975 1021.39 111.305Z" fill="#2B244A"/>
<path d="M996.958 86.9131C996.631 89.4567 999.592 88.7909 1001.9 90.7606C1004.17 92.5683 1005.9 93.1262 1006.55 91.7164C1007.31 90.0987 1005.79 87.2051 1002.19 85.6033C998.952 84.0715 997.308 85.0634 996.958 86.9131Z" fill="#2B244A"/>
<path d="M999.378 92.3518C1001.44 92.8177 1000.51 95.7073 999.926 96.7472C999.578 97.3711 998.952 98.2489 998.005 97.993C996.687 97.667 996.875 95.8633 997.131 94.9154C997.503 93.7596 998.061 92.0259 999.378 92.3518Z" fill="#2B244A"/>
<path d="M998.197 107.915C996.137 108.675 993.939 108.949 991.673 108.367C990.726 108.111 991.26 106.909 991.999 107.049C994.057 107.515 995.931 107.333 997.829 106.619C998.593 106.227 998.96 107.523 998.197 107.915Z" fill="#2B244A"/>
<path d="M1023.44 115.451C1028.02 116.777 1032.55 117.941 1036.97 119.313C1037.75 119.615 1037.42 120.933 1036.64 120.631C1032.06 119.305 1027.53 118.141 1023.12 116.769C1022.17 116.513 1022.49 115.195 1023.44 115.451Z" fill="#FFBE63"/>
<path d="M1023.95 116.008C1025.07 120.59 1026.36 125.125 1027.49 129.706C1027.72 130.516 1026.42 130.884 1026.19 130.074C1025.07 125.493 1023.78 120.957 1022.65 116.376C1022.38 115.404 1023.67 115.036 1023.95 116.008Z" fill="#FFBE63"/>
<path d="M1037.29 120.447C1034 123.656 1030.59 127.074 1027.3 130.283C1026.58 130.837 1025.66 130.049 1026.33 129.333C1029.62 126.124 1033.03 122.706 1036.32 119.497C1036.83 118.827 1037.8 119.777 1037.29 120.447Z" fill="#FFBE63"/>
<path d="M1023.44 115.451C1028.02 116.777 1032.55 117.941 1036.97 119.313C1037.75 119.615 1037.42 120.933 1036.64 120.631C1032.06 119.305 1027.53 118.141 1023.12 116.769C1022.17 116.513 1022.49 115.195 1023.44 115.451Z" fill="#FFBE63"/>
<path d="M1023.95 116.008C1025.07 120.59 1026.36 125.125 1027.49 129.706C1027.72 130.516 1026.42 130.884 1026.19 130.074C1025.07 125.493 1023.78 120.957 1022.65 116.376C1022.38 115.404 1023.67 115.036 1023.95 116.008Z" fill="#FFBE63"/>
<path d="M1037.29 120.447C1034 123.656 1030.59 127.074 1027.3 130.283C1026.58 130.837 1025.66 130.049 1026.33 129.333C1029.62 126.124 1033.03 122.706 1036.32 119.497C1036.83 118.827 1037.8 119.777 1037.29 120.447Z" fill="#FFBE63"/>
<path d="M787.728 253.324C792.323 243.618 804.329 242.134 813.388 246.913C827.022 254.244 830.814 269.446 839.236 281.232C847.059 292.139 859.359 294.772 871.706 297.568C893.808 302.669 913.512 318.429 925.068 337.552C927.651 341.72 929.887 346.511 929.879 351.414C929.867 358.769 924.49 365.722 917.271 367.422C911.024 368.846 904.251 366.568 899.1 362.605C889.005 354.794 882.918 343.219 875.047 333.377C868.538 325.248 857.65 322.039 850.191 314.88C834.673 299.682 813.498 292.917 794.849 283.334C785.374 278.323 782.715 264.025 787.728 253.324Z" fill="#587EE0"/>
<path d="M481.2 34.4199C478.457 40.2143 471.29 41.1 465.883 38.247C457.744 33.8708 455.48 24.7961 450.453 17.7603C445.783 11.2498 438.44 9.67762 431.07 8.00878C417.876 4.96358 406.114 -4.44417 399.216 -15.8598C397.673 -18.3475 396.339 -21.2077 396.343 -24.1347C396.351 -28.5252 399.561 -32.6758 403.87 -33.6904C407.599 -34.5403 411.642 -33.1807 414.717 -30.8147C420.743 -26.152 424.377 -19.2427 429.075 -13.3672C432.961 -8.51474 439.461 -6.59882 443.913 -2.32528C453.177 6.74702 465.817 10.7854 476.95 16.5057C482.606 19.4972 484.193 28.0323 481.2 34.4199Z" fill="#587EE0"/>
<path d="M1161.8 597.773C1163.8 591.254 1170.44 588.142 1176.68 589.17C1185.47 590.526 1191.49 597.567 1197.08 603.682C1201.14 608.129 1205.51 611.791 1210.87 614.644C1217.9 618.426 1266.71 639.923 1251.54 652.457C1245.45 657.512 1236.57 655.832 1228.83 651.379C1218.59 645.534 1212.18 636.503 1202.06 630.45C1192.14 624.513 1183.15 621.815 1173.4 615.832C1167.78 612.701 1159.47 605.61 1161.8 597.773Z" fill="#587EE0"/>
<path d="M542.933 532.665C544.116 527.002 548.875 524.554 553.526 525.74C560.066 527.33 564.825 533.812 569.219 539.458C572.415 543.564 575.798 546.99 579.879 549.748C585.229 553.399 622.19 574.552 611.563 584.933C607.298 589.121 600.675 587.242 594.767 582.966C586.956 577.35 581.821 569.094 574.086 563.3C566.51 557.618 559.757 554.835 552.299 549.119C548.018 546.105 541.568 539.476 542.933 532.665Z" fill="#FFBE63"/>
<path d="M1305.73 160.805C1312.37 158.134 1319.47 160.735 1324.89 164.774C1328.28 167.208 1331.3 170.183 1334.61 172.641C1338.59 175.606 1342.96 177.501 1347.74 178.672C1365.82 183.122 1380.16 190.375 1383.15 210.7C1383.69 214.465 1383.33 219.012 1380.03 220.906C1377.5 222.41 1374.32 221.657 1371.61 220.685C1353.7 214.704 1339.57 196.848 1319.45 193.5C1311.32 192.151 1304.71 183.92 1300.97 176.27C1298.1 170.463 1299.24 163.431 1305.73 160.805Z" fill="#587EE0"/>
<path d="M1141.69 260.059C1147.99 255.12 1156.78 256.476 1163.46 259.655C1172.54 263.903 1177.69 271.544 1184.8 278.101C1195.24 287.739 1213.9 291.193 1221.95 302.909C1225.46 307.864 1225.03 314.987 1218.99 317.753C1211.09 321.394 1202.39 314.765 1195.94 311.17L1165.11 293.842C1160.33 291.175 1155.39 288.553 1150.56 285.723C1146.6 283.52 1142.4 281.038 1139.58 277.287C1135.36 271.66 1136.11 264.445 1141.69 260.059Z" fill="#FFBE63"/>
<path d="M1349.35 412.2C1361.75 403.805 1391.43 426.112 1383.09 439.414C1376.84 449.166 1361.73 439.125 1355.58 434.663C1349.01 429.733 1339.29 418.9 1349.35 412.2Z" fill="#FFBE63"/>
<path d="M587.045 252.565C593.311 248.32 608.318 259.599 604.101 266.325C600.944 271.256 593.301 266.179 590.195 263.923C586.872 261.43 581.955 255.953 587.045 252.565Z" fill="#F576A6"/>
<path d="M1398.94 520.599C1402.68 509.735 1425.48 524.089 1420.98 534.119C1418.31 540.128 1410.82 537.179 1407.06 534.397C1402.87 531.384 1396.96 526.586 1398.94 520.599Z" fill="#FFBE63"/>
<path d="M1129.2 603.177C1134.57 586.949 1162.3 612.506 1163.05 621.92C1163.87 632.191 1147.48 625.642 1143.37 623.484C1136.06 619.957 1125.99 612.84 1129.2 603.177Z" fill="#FFBE63"/>
<path d="M145.896 485.938C151.265 469.71 179.001 495.266 179.749 504.681C180.565 514.952 164.177 508.403 160.064 506.245C152.761 502.717 142.688 495.6 145.896 485.938Z" fill="#EB5D19"/>
<path d="M807.136 39.0683C811.097 27.0979 831.557 45.9497 832.108 52.8945C832.71 60.4706 820.622 55.6397 817.587 54.048C812.2 51.4459 804.77 46.196 807.136 39.0683Z" fill="#00B1AE"/>
<path d="M840.852 276.163C842.13 272.649 845.531 271.683 848.767 273.215C851.748 274.469 854.474 276.671 857.548 278.248C861.245 280.174 865.013 281.73 868.038 284.372C871.78 287.685 876.513 292.642 876.805 297.986C876.985 301.085 875.453 304.321 872.214 305.241C867.47 306.412 862.065 302.171 858.392 299.713C853.378 296.236 848.713 292.134 844.719 287.317C842.458 284.284 839.388 280.254 840.852 276.163Z" fill="#FFBE63"/>
</g>
</svg>
