<svg width="345" height="277" viewBox="0 0 345 277" fill="none" xmlns="http://www.w3.org/2000/svg">
<g filter="url(#filter0_d_579_135)">
<path d="M289.061 65.9393C289.646 66.5251 289.646 67.4749 289.061 68.0607L279.515 77.6066C278.929 78.1924 277.979 78.1924 277.393 77.6066C276.808 77.0208 276.808 76.0711 277.393 75.4853L285.879 67L277.393 58.5147C276.808 57.9289 276.808 56.9792 277.393 56.3934C277.979 55.8076 278.929 55.8076 279.515 56.3934L289.061 65.9393ZM138.5 220.5H140V222H138.5V220.5ZM138.5 67H137V65.5H138.5V67ZM55 219H57.6094V222H55V219ZM62.8281 219H68.0469V222H62.8281V219ZM73.2656 219H78.4844V222H73.2656V219ZM83.7031 219H88.9219V222H83.7031V219ZM94.1406 219H99.3594V222H94.1406V219ZM104.578 219H109.797V222H104.578V219ZM115.016 219H120.234V222H115.016V219ZM125.453 219H130.672V222H125.453V219ZM135.891 219H138.5V222H135.891V219ZM137 220.5V217.942H140V220.5H137ZM137 212.825V207.708H140V212.825H137ZM137 202.592V197.475H140V202.592H137ZM137 192.358V187.242H140V192.358H137ZM137 182.125V177.008H140V182.125H137ZM137 171.892V166.775H140V171.892H137ZM137 161.658V156.542H140V161.658H137ZM137 151.425V146.308H140V151.425H137ZM137 141.192V136.075H140V141.192H137ZM137 130.958V125.842H140V130.958H137ZM137 120.725V115.608H140V120.725H137ZM137 110.492V105.375H140V110.492H137ZM137 100.258V95.1416H140V100.258H137ZM137 90.025V84.9083H140V90.025H137ZM137 79.7916V74.675H140V79.7916H137ZM137 69.5583V67H140V69.5583H137ZM138.5 65.5H140.992V68.5H138.5V65.5ZM145.975 65.5H150.958V68.5H145.975V65.5ZM155.942 65.5H160.925V68.5H155.942V65.5ZM165.908 65.5H170.892V68.5H165.908V65.5ZM175.875 65.5H180.858V68.5H175.875V65.5ZM185.842 65.5H190.825V68.5H185.842V65.5ZM195.808 65.5H200.792V68.5H195.808V65.5ZM205.775 65.5H210.758V68.5H205.775V65.5ZM215.742 65.5H220.725V68.5H215.742V65.5ZM225.708 65.5H230.692V68.5H225.708V65.5ZM235.675 65.5H240.658V68.5H235.675V65.5ZM245.642 65.5H250.625V68.5H245.642V65.5ZM255.608 65.5H260.592V68.5H255.608V65.5ZM265.575 65.5H270.558V68.5H265.575V65.5ZM275.542 65.5H280.525V68.5H275.542V65.5ZM285.508 65.5H288V68.5H285.508V65.5Z" fill="url(#paint0_linear_579_135)"/>
</g>
<defs>
<filter id="filter0_d_579_135" x="0" y="0.954102" width="344.5" height="276.046" filterUnits="userSpaceOnUse" color-interpolation-filters="sRGB">
<feFlood flood-opacity="0" result="BackgroundImageFix"/>
<feColorMatrix in="SourceAlpha" type="matrix" values="0 0 0 0 0 0 0 0 0 0 0 0 0 0 0 0 0 0 127 0" result="hardAlpha"/>
<feOffset/>
<feGaussianBlur stdDeviation="27.5"/>
<feColorMatrix type="matrix" values="0 0 0 0 0.94902 0 0 0 0 0.411765 0 0 0 0 0.247059 0 0 0 0.35 0"/>
<feBlend mode="normal" in2="BackgroundImageFix" result="effect1_dropShadow_579_135"/>
<feBlend mode="normal" in="SourceGraphic" in2="effect1_dropShadow_579_135" result="shape"/>
</filter>
<linearGradient id="paint0_linear_579_135" x1="171.5" y1="220.5" x2="171.5" y2="67" gradientUnits="userSpaceOnUse">
<stop stop-color="#74D414"/>
<stop offset="1" stop-color="#74D414"/>
</linearGradient>
</defs>
</svg>
