<svg width="337" height="133" viewBox="0 0 337 133" fill="none" xmlns="http://www.w3.org/2000/svg">
<g filter="url(#filter0_d_579_142)">
<path d="M281.061 67.5607C281.646 66.9749 281.646 66.0251 281.061 65.4393L271.515 55.8934C270.929 55.3076 269.979 55.3076 269.393 55.8934C268.808 56.4792 268.808 57.4289 269.393 58.0147L277.879 66.5L269.393 74.9853C268.808 75.5711 268.808 76.5208 269.393 77.1066C269.979 77.6924 270.929 77.6924 271.515 77.1066L281.061 67.5607ZM55 68H57.4457V65H55V68ZM62.337 68H67.2283V65H62.337V68ZM72.1196 68H77.0109V65H72.1196V68ZM81.9022 68H86.7935V65H81.9022V68ZM91.6848 68H96.5761V65H91.6848V68ZM101.467 68H106.359V65H101.467V68ZM111.25 68H116.141V65H111.25V68ZM121.033 68H125.924V65H121.033V68ZM130.815 68H135.707V65H130.815V68ZM140.598 68H145.489V65H140.598V68ZM150.38 68H155.272V65H150.38V68ZM160.163 68H165.054V65H160.163V68ZM169.946 68H174.837V65H169.946V68ZM179.728 68H184.62V65H179.728V68ZM189.511 68H194.402V65H189.511V68ZM199.294 68H204.185V65H199.294V68ZM209.076 68H213.967V65H209.076V68ZM218.859 68H223.75V65H218.859V68ZM228.641 68H233.533V65H228.641V68ZM238.424 68H243.315V65H238.424V68ZM248.207 68H253.098V65H248.207V68ZM257.989 68H262.881V65H257.989V68ZM267.772 68H272.663V65H267.772V68ZM277.554 68H280V65H277.554V68Z" fill="url(#paint0_linear_579_142)"/>
</g>
<defs>
<filter id="filter0_d_579_142" x="0" y="0.454102" width="336.5" height="132.092" filterUnits="userSpaceOnUse" color-interpolation-filters="sRGB">
<feFlood flood-opacity="0" result="BackgroundImageFix"/>
<feColorMatrix in="SourceAlpha" type="matrix" values="0 0 0 0 0 0 0 0 0 0 0 0 0 0 0 0 0 0 127 0" result="hardAlpha"/>
<feOffset/>
<feGaussianBlur stdDeviation="27.5"/>
<feColorMatrix type="matrix" values="0 0 0 0 0.94902 0 0 0 0 0.411765 0 0 0 0 0.247059 0 0 0 0.35 0"/>
<feBlend mode="normal" in2="BackgroundImageFix" result="effect1_dropShadow_579_142"/>
<feBlend mode="normal" in="SourceGraphic" in2="effect1_dropShadow_579_142" result="shape"/>
</filter>
<linearGradient id="paint0_linear_579_142" x1="167.5" y1="66.5" x2="167.5" y2="67.5" gradientUnits="userSpaceOnUse">
<stop stop-color="#74D414"/>
<stop offset="1" stop-color="#74D414"/>
</linearGradient>
</defs>
</svg>
