<svg width="26" height="28" viewBox="0 0 26 28" fill="none" xmlns="http://www.w3.org/2000/svg">
<g opacity="0.8" clip-path="url(#clip0_757_311)">
<path d="M12.746 4.04949C12.4381 4.04949 12.1883 4.29938 12.1883 4.60725C12.1883 4.91512 12.4382 5.16501 12.746 5.16501C13.054 5.16501 13.3038 4.91512 13.3038 4.60725C13.3038 4.29938 13.054 4.04949 12.746 4.04949Z" fill="#3F4353" stroke="#3F4353" stroke-width="0.1"/>
<path d="M11.7318 10.1427H13.7628C14.0708 10.1427 14.3206 10.3925 14.3204 10.7005L11.7318 10.1427ZM11.7318 10.1427C11.4917 10.1427 11.2786 10.2963 11.2027 10.5241M11.7318 10.1427L11.2027 10.5241M11.2027 10.5241L10.7162 11.9833M11.2027 10.5241L10.7162 11.9833M10.7162 11.9833L10.2298 10.5241C10.2298 10.5241 10.2298 10.5241 10.2298 10.5241C10.1539 10.2963 9.94072 10.1428 9.7007 10.1428H9.12067L8.2108 6.50306L8.21079 6.50305L8.16229 6.51518M10.7162 11.9833L14.3204 10.7005C14.3204 11.0085 14.0707 11.2583 13.7627 11.2583H12.1337L11.2453 13.9235C11.1693 14.1512 10.9562 14.3048 10.7161 14.3048C10.4761 14.3048 10.2629 14.1513 10.187 13.9235C10.187 13.9235 10.187 13.9235 10.187 13.9235L9.29858 11.2583H8.68508C8.42916 11.2583 8.20603 11.0841 8.14399 10.8358C8.14399 10.8358 8.14399 10.8358 8.14399 10.8358L7.66956 8.93818L7.19512 10.8358C7.19512 10.8358 7.19512 10.8358 7.19512 10.8358C7.13309 11.0841 6.91001 11.2583 6.65404 11.2583H4.62299C4.31502 11.2583 4.06523 11.0085 4.06523 10.7005C4.06523 10.3925 4.31496 10.1428 4.62299 10.1428H6.21875L7.12863 6.50306L7.12863 6.50305L7.17713 6.51518M8.16229 6.51518C8.10582 6.28915 7.90269 6.13062 7.66971 6.13062C7.43668 6.13062 7.2336 6.28921 7.17713 6.51518M8.16229 6.51518L9.08163 10.1928L8.16229 6.51518ZM7.17713 6.51518L6.25779 10.1928L7.17713 6.51518Z" fill="#3F4353" stroke="#3F4353" stroke-width="0.1"/>
<path d="M17.6432 15.654C19.6497 17.4831 24.63 22.0229 25.1941 22.5383C26.2671 23.491 26.3658 25.217 25.2907 26.2913C24.2795 27.3033 22.6433 27.3027 21.6321 26.2932M17.6432 15.654L21.6674 26.2578M17.6432 15.654C17.3322 15.3706 17.0927 15.1523 16.9521 15.0241C19.1922 11.4322 18.6928 6.69654 15.6402 3.64393C12.0488 0.0525553 6.23556 0.0521461 2.64368 3.64392C-0.947689 7.2354 -0.948098 13.0486 2.64368 16.6405C5.69474 19.6915 10.4245 20.1901 14.0132 17.9588M17.6432 15.654L14.022 17.8944M21.6321 26.2932L21.6674 26.2578M21.6321 26.2932C21.6323 26.2934 21.6323 26.2934 21.6324 26.2935L21.6674 26.2578M21.6321 26.2932C21.5825 26.2397 14.5153 18.5082 14.0132 17.9588M21.6674 26.2578C21.6616 26.2521 14.7379 18.6776 14.0731 17.9503L14.022 17.8944M14.0132 17.9588C14.025 17.9515 14.0368 17.9441 14.0486 17.9367L14.022 17.8944M14.0132 17.9588C14.0042 17.949 13.9973 17.9414 13.9926 17.9363L13.9851 17.9281L14.022 17.8944M14.9374 17.3027L14.9371 17.3023L14.9368 17.3021C15.1863 17.1 15.4265 16.8837 15.6551 16.6552C15.8827 16.4276 16.0982 16.1879 16.3 15.9389L17.3902 16.9328L15.9312 18.3917L14.9548 17.321L14.9179 17.3546L14.9548 17.3209C14.9489 17.3144 14.9429 17.3083 14.9374 17.3027ZM14.8661 15.8663L14.9015 15.9017L14.8661 15.8663C11.7095 19.0235 6.60077 19.0198 3.43254 15.8516C0.277174 12.6964 0.27662 7.5885 3.43254 4.43273C6.58785 1.27737 11.6957 1.27676 14.8514 4.43273C18.0266 7.60783 18.0206 12.7119 14.8661 15.8663ZM24.5019 25.5024L24.5019 25.5024C23.8943 26.1104 22.9064 26.0622 22.3657 25.4464L22.365 25.4457L16.6837 19.2169L18.2154 17.6852L24.4453 23.365C24.4454 23.3651 24.4454 23.3651 24.4454 23.3651C25.1061 23.9764 25.0703 24.9345 24.5019 25.5024ZM24.5372 25.5378C23.9092 26.1662 22.8878 26.1168 22.3281 25.4794L24.5372 25.5378Z" fill="#3F4353" stroke="#3F4353" stroke-width="0.1"/>
<path d="M13.4309 14.4297L13.431 14.4297C15.6426 12.2186 15.813 8.73213 13.8273 6.31951C13.6316 6.08166 13.6657 5.73018 13.9036 5.53439C14.1415 5.33859 14.493 5.37285 14.6887 5.61064L14.6501 5.64242L14.6887 5.61064C17.0056 8.42575 16.841 12.5976 14.2198 15.2185C14.2198 15.2185 14.2198 15.2185 14.2198 15.2185M13.4309 14.4297L4.13151 15.1831C6.90528 17.9574 11.4104 17.9577 14.1844 15.1832L14.2198 15.2185M13.4309 14.4297C11.0737 16.7875 7.24271 16.7878 4.88502 14.4296L4.88501 14.4296C2.52717 12.0723 2.52697 8.24133 4.88506 5.88374L4.88507 5.88374C6.40975 4.3591 8.65494 3.76235 10.7447 4.32681L10.7447 4.32681C11.042 4.40702 11.3483 4.23116 11.4286 3.93377L11.4286 3.93376C11.5089 3.63639 11.3329 3.33022 11.0356 3.24984L11.0225 3.29809L11.0356 3.24983C8.5616 2.58148 5.90261 3.28843 4.09626 5.09483M13.4309 14.4297L4.09615 15.2184M14.2198 15.2185C11.4263 18.0125 6.88945 18.0123 4.09615 15.2184M14.2198 15.2185L4.09615 15.2184M4.09626 5.09483C1.30246 7.88812 1.30215 12.4249 4.09615 15.2184M4.09626 5.09483L4.13161 5.13019L4.09626 5.09483M4.09626 5.09483C4.09626 5.09483 4.09626 5.09483 4.09626 5.09483M4.09626 5.09483L4.09626 5.09483" fill="#3F4353" stroke="#3F4353" stroke-width="0.1"/>
</g>
<defs>
<clipPath id="clip0_757_311">
<rect width="26" height="28" fill="white"/>
</clipPath>
</defs>
</svg>
