<svg width="28" height="28" viewBox="0 0 28 28" fill="none" xmlns="http://www.w3.org/2000/svg">
<path fill-rule="evenodd" clip-rule="evenodd" d="M13.9231 26.8462C21.0603 26.8462 26.8462 21.0603 26.8462 13.9231C26.8462 6.78586 21.0603 1 13.9231 1C6.78586 1 1 6.78586 1 13.9231C1 21.0603 6.78586 26.8462 13.9231 26.8462Z" stroke="white" stroke-width="1.5" stroke-linecap="round" stroke-linejoin="round"/>
<path d="M12.316 16.812V18H7.792V16.812H9.436V10.74C9.372 10.836 9.264 10.944 9.112 11.064C8.968 11.176 8.804 11.288 8.62 11.4C8.436 11.504 8.244 11.592 8.044 11.664C7.852 11.736 7.676 11.772 7.516 11.772V10.548C7.732 10.548 7.948 10.492 8.164 10.38C8.388 10.268 8.596 10.14 8.788 9.996C8.98 9.844 9.132 9.708 9.244 9.588C9.364 9.468 9.428 9.404 9.436 9.396H10.792V16.812H12.316ZM12.9981 13.68C12.9981 13.16 13.0901 12.652 13.2741 12.156C13.4581 11.652 13.7261 11.196 14.0781 10.788C14.4381 10.372 14.8741 10.044 15.3861 9.804C15.8981 9.556 16.4781 9.432 17.1261 9.432C17.8941 9.432 18.5581 9.608 19.1181 9.96C19.6781 10.304 20.0941 10.748 20.3661 11.292L19.3101 12C19.1501 11.656 18.9461 11.384 18.6981 11.184C18.4581 10.984 18.1941 10.844 17.9061 10.764C17.6261 10.684 17.3501 10.644 17.0781 10.644C16.6301 10.644 16.2381 10.736 15.9021 10.92C15.5661 11.096 15.2821 11.332 15.0501 11.628C14.8261 11.924 14.6541 12.256 14.5341 12.624C14.4221 12.992 14.3661 13.36 14.3661 13.728C14.3661 14.136 14.4341 14.532 14.5701 14.916C14.7061 15.292 14.8941 15.628 15.1341 15.924C15.3821 16.212 15.6741 16.44 16.0101 16.608C16.3461 16.776 16.7141 16.86 17.1141 16.86C17.3861 16.86 17.6701 16.812 17.9661 16.716C18.2621 16.62 18.5341 16.472 18.7821 16.272C19.0381 16.064 19.2381 15.792 19.3821 15.456L20.4981 16.092C20.3221 16.516 20.0461 16.876 19.6701 17.172C19.3021 17.468 18.8861 17.692 18.4221 17.844C17.9661 17.996 17.5141 18.072 17.0661 18.072C16.4661 18.072 15.9181 17.948 15.4221 17.7C14.9261 17.444 14.4981 17.108 14.1381 16.692C13.7781 16.268 13.4981 15.796 13.2981 15.276C13.0981 14.748 12.9981 14.216 12.9981 13.68Z" fill="white"/>
</svg>
