<svg width="28" height="26" viewBox="0 0 28 26" fill="none" xmlns="http://www.w3.org/2000/svg">
<path d="M14.1174 14.9509V13.0001C15.5824 13.0001 16.77 11.8355 16.77 10.399C16.77 8.96241 15.5824 7.79785 14.1174 7.79785C12.6524 7.79785 11.4648 8.96241 11.4648 10.399" stroke="white" stroke-width="1.5" stroke-linecap="round" stroke-linejoin="round"/>
<path d="M15.4425 24.6244C15.0025 24.6777 14.5596 24.7046 14.1162 24.7051C7.52385 24.7051 2.17969 19.4646 2.17969 13.0002C2.17969 6.53584 7.52385 1.29541 14.1162 1.29541C20.7086 1.29541 26.0527 6.53584 26.0527 13.0002C26.0522 13.435 26.0248 13.8693 25.9705 14.3008" stroke="white" stroke-width="1.5" stroke-linecap="round" stroke-linejoin="round"/>
<path d="M24.7271 19.5029L21.4113 22.7544L19.4219 20.8035" stroke="white" stroke-width="1.5" stroke-linecap="round" stroke-linejoin="round"/>
<path d="M14.1162 18.137C14.0796 18.137 14.0499 18.1661 14.0499 18.202C14.0499 18.2379 14.0796 18.2671 14.1162 18.2671C14.1528 18.2671 14.1825 18.2379 14.1825 18.202C14.1825 18.1661 14.1528 18.137 14.1162 18.137" stroke="white" stroke-width="1.5" stroke-linecap="round" stroke-linejoin="round"/>
</svg>
