<svg width="22" height="28" viewBox="0 0 22 28" fill="none" xmlns="http://www.w3.org/2000/svg">
<path fill-rule="evenodd" clip-rule="evenodd" d="M17.5725 27H3.97531C2.47281 27 1.25586 25.8067 1.25586 24.3333V13.6667C1.25586 12.1933 2.47281 11 3.97531 11H17.5725C19.075 11 20.292 12.1933 20.292 13.6667V24.3333C20.292 25.8067 19.075 27 17.5725 27Z" stroke="white" stroke-width="1.5" stroke-linecap="round" stroke-linejoin="round"/>
<path d="M5.33496 6.99984C5.33496 4.0545 7.77023 1.6665 10.7739 1.6665C13.7775 1.6665 16.2128 4.0545 16.2128 6.99984V10.9998" stroke="white" stroke-width="1.5" stroke-linecap="round" stroke-linejoin="round"/>
<path d="M10.7736 21.7863V18.333" stroke="white" stroke-width="1.5" stroke-linecap="round" stroke-linejoin="round"/>
<path d="M11.4948 16.6259C11.8931 17.0164 11.8931 17.6496 11.4948 18.0401C11.0965 18.4306 10.4509 18.4306 10.0526 18.0401C9.65434 17.6496 9.65434 17.0164 10.0526 16.6259C10.4509 16.2354 11.0965 16.2354 11.4948 16.6259" stroke="white" stroke-width="1.5" stroke-linecap="round" stroke-linejoin="round"/>
</svg>
