<svg width="27" height="28" viewBox="0 0 27 28" fill="none" xmlns="http://www.w3.org/2000/svg">
<path d="M2.73206 16.6049L2.69705 16.6406C-0.965892 13.0486 -0.965475 7.23488 2.69705 3.64334C6.35955 0.0520169 12.2866 0.052426 15.9487 3.64334C19.0615 6.6958 19.5711 11.4316 17.2868 15.0237C17.4313 15.1528 17.6779 15.3733 17.998 15.6594C20.0486 17.4924 25.117 22.0229 25.6917 22.5377C26.786 23.4904 26.8867 25.217 25.7901 26.2914C24.7595 27.3029 23.092 27.3023 22.0613 26.2933M2.73206 16.6049L22.0963 26.2576M2.73206 16.6049L2.69705 16.6406C5.8085 19.6916 10.6316 20.1897 14.2908 17.9581M2.73206 16.6049L14.2995 17.8941M22.0613 26.2933L22.0963 26.2576M22.0613 26.2933C22.0614 26.2935 22.0615 26.2935 22.0616 26.2936L22.0963 26.2576M22.0613 26.2933C22.0116 26.2408 15.0825 18.8075 14.3291 17.9992L14.2908 17.9581M22.0963 26.2576C22.0903 26.2519 15.0241 18.6715 14.3508 17.9492L14.2995 17.8941M14.2908 17.9581C14.3024 17.951 14.3141 17.9438 14.3257 17.9367L14.2995 17.8941M14.2908 17.9581L14.2629 17.9282L14.2995 17.8941M15.2498 17.3204L15.2498 17.3203C15.2437 17.3138 15.2376 17.3077 15.232 17.3021L15.2317 17.3018C15.486 17.0999 15.7308 16.8837 15.9638 16.6553C16.1963 16.4274 16.4164 16.1873 16.6225 15.9379L17.735 16.9326L16.2465 18.3922L15.2498 17.3204ZM15.1464 4.43283L15.1814 4.39713L15.1464 4.43283C18.3843 7.60786 18.3782 12.7114 15.1614 15.8658L15.1964 15.9015L15.1614 15.8658C11.9418 19.0234 6.73083 19.0197 3.49942 15.851C0.281689 12.6958 0.281125 7.58852 3.49942 4.43283C6.71766 1.27701 11.9277 1.2764 15.1464 4.43283ZM24.9879 25.5018L24.9878 25.5018C24.3677 26.1103 23.359 26.062 22.8072 25.4458L22.8066 25.4451L17.0132 19.2167L18.5759 17.6844L24.9302 23.3651C24.9302 23.3652 24.9303 23.3652 24.9303 23.3653C25.604 23.9765 25.5674 24.934 24.9879 25.5018Z" fill="white" stroke="white" stroke-width="0.1"/>
</svg>
