<svg width="27" height="20" viewBox="0 0 27 20" fill="none" xmlns="http://www.w3.org/2000/svg">
<path d="M8.72039 5.26612L4.22362 9.67561C3.92025 9.97308 3.92025 10.4554 4.22362 10.7528L8.28367 14.7341C8.58698 15.0316 9.07885 15.0316 9.38222 14.7341C9.68558 14.4366 9.68558 13.9543 9.38222 13.6569L5.87146 10.2142L9.81893 6.34329C10.1223 6.04582 10.1223 5.56355 9.81893 5.26607C9.51557 4.96859 9.0237 4.96859 8.72039 5.26612Z" fill="white"/>
<path d="M18.6222 5.26608C18.3188 4.9686 17.827 4.9686 17.5236 5.26608C17.2202 5.56355 17.2202 6.04582 17.5236 6.3433L21.0344 9.78596L17.0869 13.6569C16.7835 13.9543 16.7835 14.4366 17.0869 14.7341C17.3902 15.0316 17.8821 15.0316 18.1854 14.7341L22.6822 10.3246C22.9856 10.0271 22.9856 9.54485 22.6822 9.24738L18.6222 5.26608Z" fill="white"/>
<path d="M14.0006 7.5281C13.596 7.38794 13.1524 7.59604 13.0095 7.99269L10.6539 15.4491C10.5111 15.8458 10.7231 16.2809 11.1277 16.421C11.5321 16.561 11.976 16.3531 12.1188 15.9564L14.4744 8.5C14.6173 8.1033 14.4051 7.66815 14.0006 7.5281Z" fill="white"/>
<path d="M22.9573 0.48877H3.94796C1.87873 0.48877 0.195312 2.13952 0.195312 4.16858V15.8315C0.195312 17.8606 1.87873 19.5113 3.94796 19.5113H22.9573C25.0265 19.5113 26.71 17.8606 26.71 15.8315V4.16858C26.71 2.13952 25.0265 0.48877 22.9573 0.48877ZM25.1564 15.8315C25.1564 17.0206 24.1699 17.9879 22.9573 17.9879H3.94796C2.73538 17.9879 1.74891 17.0206 1.74891 15.8315V4.16858C1.74891 2.97954 2.73538 2.01221 3.94796 2.01221H22.9573C24.1699 2.01221 25.1564 2.97954 25.1564 4.16858V15.8315Z" fill="white"/>
</svg>
