<svg width="30" height="30" viewBox="0 0 30 30" fill="none" xmlns="http://www.w3.org/2000/svg">
<path d="M17.543 1.93066C20.174 2.14366 22.745 3.23266 24.7595 5.24716C26.7725 7.26016 27.86 9.82966 28.0715 12.4592" stroke="white" stroke-width="1.5" stroke-linecap="round" stroke-linejoin="round"/>
<path d="M12.4882 28.0697C9.84819 27.8612 7.26519 26.7707 5.24469 24.7502C3.22419 22.7297 2.13669 20.1497 1.92969 17.5112" stroke="white" stroke-width="1.5" stroke-linecap="round" stroke-linejoin="round"/>
<path d="M18.9453 21.1948L21.1953 18.9448" stroke="white" stroke-width="1.5" stroke-linecap="round" stroke-linejoin="round"/>
<path fill-rule="evenodd" clip-rule="evenodd" d="M4.93331 10.0668L10.0663 4.9338C11.2378 3.7623 13.1368 3.7623 14.3083 4.9338L25.0663 15.6918C26.2378 16.8633 26.2378 18.7623 25.0663 19.9338L19.9333 25.0668C18.7618 26.2383 16.8628 26.2383 15.6913 25.0668L4.93331 14.3088C3.76181 13.1373 3.76181 11.2383 4.93331 10.0668Z" stroke="white" stroke-width="1.5" stroke-linecap="round" stroke-linejoin="round"/>
</svg>
